<svg width="27" height="12" viewBox="0 0 27 12" fill="none" xmlns="http://www.w3.org/2000/svg">
<path d="M1.5 5.61914C1.08579 5.61914 0.75 5.95493 0.75 6.36914C0.75 6.78335 1.08579 7.11914 1.5 7.11914V5.61914ZM26.0303 6.89947C26.3232 6.60658 26.3232 6.1317 26.0303 5.83881L21.2574 1.06584C20.9645 0.772946 20.4896 0.772946 20.1967 1.06584C19.9038 1.35873 19.9038 1.83361 20.1967 2.1265L24.4393 6.36914L20.1967 10.6118C19.9038 10.9047 19.9038 11.3795 20.1967 11.6724C20.4896 11.9653 20.9645 11.9653 21.2574 11.6724L26.0303 6.89947ZM1.5 7.11914H25.5V5.61914H1.5V7.11914Z" fill="#FF0000"/>
</svg>
