<svg width="33" height="33" viewBox="0 0 33 33" fill="none" xmlns="http://www.w3.org/2000/svg">
<g clip-path="url(#clip0_87690_1911)">
<path d="M16.5 0.369141C7.66375 0.369141 0.5 7.53289 0.5 16.3691C0.5 25.2054 7.66375 32.3691 16.5 32.3691C25.3363 32.3691 32.5 25.2054 32.5 16.3691C32.5 7.53289 25.3363 0.369141 16.5 0.369141Z" fill="#FF0000"/>
<path d="M17.5276 6.36914C18.6526 6.37214 19.2236 6.37814 19.7166 6.39214L19.9106 6.39914C20.1346 6.40714 20.3556 6.41714 20.6226 6.42914C21.6866 6.47914 22.4126 6.64714 23.0496 6.89414C23.7096 7.14814 24.2656 7.49214 24.8216 8.04714C25.3301 8.54704 25.7236 9.15173 25.9746 9.81914C26.2216 10.4561 26.3896 11.1821 26.4396 12.2471C26.4516 12.5131 26.4616 12.7341 26.4696 12.9591L26.4756 13.1531C26.4906 13.6451 26.4966 14.2161 26.4986 15.3411L26.4996 16.0871V17.3971C26.5021 18.1265 26.4944 18.8559 26.4766 19.5851L26.4706 19.7791C26.4626 20.0041 26.4526 20.2251 26.4406 20.4911C26.3906 21.5561 26.2206 22.2811 25.9746 22.9191C25.7243 23.5869 25.3307 24.1918 24.8216 24.6911C24.3216 25.1995 23.7169 25.5929 23.0496 25.8441C22.4126 26.0911 21.6866 26.2591 20.6226 26.3091C20.3853 26.3203 20.148 26.3303 19.9106 26.3391L19.7166 26.3451C19.2236 26.3591 18.6526 26.3661 17.5276 26.3681L16.7816 26.3691H15.4726C14.7429 26.3717 14.0131 26.364 13.2836 26.3461L13.0896 26.3401C12.8522 26.3312 12.6149 26.3208 12.3776 26.3091C11.3136 26.2591 10.5876 26.0911 9.9496 25.8441C9.28227 25.5935 8.67782 25.2 8.1786 24.6911C7.66965 24.1914 7.27582 23.5867 7.0246 22.9191C6.7776 22.2821 6.6096 21.5561 6.5596 20.4911C6.54846 20.2539 6.53846 20.0165 6.5296 19.7791L6.5246 19.5851C6.50617 18.856 6.49784 18.1266 6.4996 17.3971V15.3411C6.49681 14.6117 6.50414 13.8823 6.5216 13.1531L6.5286 12.9591C6.5366 12.7341 6.5466 12.5131 6.5586 12.2471C6.6086 11.1821 6.7766 10.4571 7.0236 9.81914C7.27471 9.15104 7.66932 8.54616 8.1796 8.04714C8.67869 7.53861 9.28274 7.14513 9.9496 6.89414C10.5876 6.64714 11.3126 6.47914 12.3776 6.42914C12.6436 6.41714 12.8656 6.40714 13.0896 6.39914L13.2836 6.39314C14.0128 6.37537 14.7422 6.36771 15.4716 6.37014L17.5276 6.36914ZM16.4996 11.3691C15.1735 11.3691 13.9017 11.8959 12.9641 12.8336C12.0264 13.7713 11.4996 15.0431 11.4996 16.3691C11.4996 17.6952 12.0264 18.967 12.9641 19.9047C13.9017 20.8424 15.1735 21.3691 16.4996 21.3691C17.8257 21.3691 19.0975 20.8424 20.0351 19.9047C20.9728 18.967 21.4996 17.6952 21.4996 16.3691C21.4996 15.0431 20.9728 13.7713 20.0351 12.8336C19.0975 11.8959 17.8257 11.3691 16.4996 11.3691ZM16.4996 13.3691C16.8936 13.3691 17.2837 13.4466 17.6477 13.5973C18.0117 13.748 18.3424 13.9689 18.6211 14.2475C18.8997 14.526 19.1207 14.8567 19.2715 15.2206C19.4224 15.5846 19.5 15.9747 19.5001 16.3686C19.5002 16.7626 19.4226 17.1527 19.2719 17.5167C19.1212 17.8807 18.9003 18.2115 18.6218 18.4901C18.3432 18.7687 18.0126 18.9898 17.6486 19.1406C17.2847 19.2914 16.8946 19.3691 16.5006 19.3691C15.705 19.3691 14.9419 19.0531 14.3793 18.4905C13.8167 17.9279 13.5006 17.1648 13.5006 16.3691C13.5006 15.5735 13.8167 14.8104 14.3793 14.2478C14.9419 13.6852 15.705 13.3691 16.5006 13.3691M21.7506 9.86914C21.4191 9.86914 21.1011 10.0008 20.8667 10.2353C20.6323 10.4697 20.5006 10.7876 20.5006 11.1191C20.5006 11.4507 20.6323 11.7686 20.8667 12.003C21.1011 12.2374 21.4191 12.3691 21.7506 12.3691C22.0821 12.3691 22.4001 12.2374 22.6345 12.003C22.8689 11.7686 23.0006 11.4507 23.0006 11.1191C23.0006 10.7876 22.8689 10.4697 22.6345 10.2353C22.4001 10.0008 22.0821 9.86914 21.7506 9.86914Z" fill="white"/>
</g>
<defs>
<clipPath id="clip0_87690_1911">
<rect width="32" height="32" fill="white" transform="translate(0.5 0.369141)"/>
</clipPath>
</defs>
</svg>
