<svg width="33" height="33" viewBox="0 0 33 33" fill="none" xmlns="http://www.w3.org/2000/svg">
<path d="M16.5 0.369141C7.66342 0.369141 0.5 7.53256 0.5 16.3691C0.5 25.2057 7.66342 32.3691 16.5 32.3691C25.3366 32.3691 32.5 25.2057 32.5 16.3691C32.5 7.53256 25.3366 0.369141 16.5 0.369141ZM22.6041 8.51727L20.3911 8.51826C18.6557 8.51826 18.3202 9.34289 18.3202 10.5528V13.2209H22.4584L22.4564 17.3997H18.3205V28.1235H14.0042V17.3997H10.3959V13.2209H14.0042V10.139C14.0042 6.56257 16.1893 4.61475 19.3795 4.61475L22.6044 4.61966L22.6041 8.51727Z" fill="#FF0000"/>
</svg>
