<svg width="41" height="41" viewBox="0 0 41 41" fill="none" xmlns="http://www.w3.org/2000/svg">
<g clip-path="url(#clip0_87690_1345)">
<path d="M38.9892 16.8914L22.6736 16.8906C21.9531 16.8906 21.3691 17.4745 21.3691 18.195V23.4071C21.3691 24.1274 21.9531 24.7115 22.6735 24.7115H31.8615C30.8554 27.3225 28.9776 29.5091 26.5818 30.8985L30.4995 37.6805C36.7841 34.0459 40.4995 27.6686 40.4995 20.5297C40.4995 19.5132 40.4246 18.7866 40.2748 17.9684C40.1609 17.3467 39.6212 16.8914 38.9892 16.8914Z" fill="#167EE6"/>
<path d="M20.5001 32.5433C16.0037 32.5433 12.0784 30.0866 9.97019 26.4512L3.18848 30.3601C6.63965 36.3415 13.1048 40.3694 20.5001 40.3694C24.128 40.3694 27.5512 39.3926 30.5001 37.6903V37.681L26.5824 30.899C24.7903 31.9384 22.7166 32.5433 20.5001 32.5433Z" fill="#12B347"/>
<path d="M30.5 37.6898V37.6805L26.5823 30.8984C24.7902 31.9377 22.7166 32.5427 20.5 32.5427V40.3688C24.1279 40.3688 27.5512 39.392 30.5 37.6898Z" fill="#0F993E"/>
<path d="M8.32609 20.3696C8.32609 18.1533 8.93093 16.0798 9.97008 14.2878L3.18836 10.3789C1.47672 13.3185 0.5 16.7324 0.5 20.3696C0.5 24.0068 1.47672 27.4207 3.18836 30.3603L9.97008 26.4514C8.93093 24.6595 8.32609 22.5859 8.32609 20.3696Z" fill="#FFD500"/>
<path d="M20.5001 8.19523C23.4322 8.19523 26.1255 9.23711 28.2292 10.9702C28.7482 11.3977 29.5025 11.3668 29.9778 10.8914L33.6708 7.19844C34.2102 6.65906 34.1717 5.77617 33.5956 5.27633C30.071 2.21859 25.485 0.369141 20.5001 0.369141C13.1048 0.369141 6.63965 4.39703 3.18848 10.3784L9.97019 14.2873C12.0784 10.652 16.0037 8.19523 20.5001 8.19523Z" fill="#FF4B26"/>
<path d="M28.2291 10.9702C28.748 11.3977 29.5024 11.3668 29.9777 10.8914L33.6707 7.19844C34.21 6.65906 34.1716 5.77617 33.5955 5.27633C30.0709 2.21852 25.4849 0.369141 20.5 0.369141V8.19524C23.432 8.19524 26.1254 9.23711 28.2291 10.9702Z" fill="#D93F21"/>
</g>
<defs>
<clipPath id="clip0_87690_1345">
<rect width="40" height="40" fill="white" transform="translate(0.5 0.369141)"/>
</clipPath>
</defs>
</svg>
