<svg width="106" height="53" viewBox="0 0 106 53" fill="none" xmlns="http://www.w3.org/2000/svg">
<path d="M28.4608 24.6217C28.4608 23.6965 28.6152 22.8449 28.9219 22.0669C29.2287 21.2909 29.6635 20.6224 30.2244 20.0654C30.7853 19.5083 31.4554 19.0722 32.2346 18.7587C33.0139 18.4453 33.8797 18.2886 34.8339 18.2886C35.6376 18.2886 36.4169 18.3981 37.1716 18.6171C37.9264 18.8362 38.6397 19.1855 39.3155 19.6632L38.7207 21.9045L38.572 21.8743C38.4421 21.3871 38.2784 20.9302 38.0807 20.5073C37.8813 20.0843 37.6384 19.7179 37.3504 19.4102C37.0625 19.1024 36.7255 18.8607 36.3378 18.6851C35.9501 18.5114 35.504 18.4245 34.9977 18.4245C34.194 18.4245 33.5013 18.6039 32.9197 18.9626C32.3381 19.3214 31.862 19.7935 31.4911 20.3826C31.1185 20.9698 30.8456 21.6496 30.6724 22.4219C30.4992 23.1942 30.4127 23.9873 30.4127 24.8049C30.4127 25.6225 30.5124 26.3362 30.71 27.0689C30.9076 27.8015 31.2013 28.4529 31.589 29.025C31.9767 29.5972 32.4549 30.056 33.0251 30.3997C33.5954 30.7433 34.258 30.9151 35.0127 30.9151C35.5492 30.9151 36.0329 30.8113 36.4639 30.6017C36.8949 30.3921 37.2695 30.1107 37.5876 29.7577C37.9057 29.4046 38.1692 28.9929 38.3762 28.5247C38.5852 28.0564 38.7339 27.5598 38.8224 27.0311L38.971 27.0009L39.626 29.3762C38.9108 29.9541 38.1598 30.377 37.3693 30.6451C36.5806 30.9133 35.7186 31.0492 34.785 31.0492C33.9022 31.0492 33.0778 30.8982 32.3137 30.5942C31.5495 30.2902 30.8794 29.8597 30.3035 29.3026C29.7275 28.7456 29.2758 28.0696 28.9483 27.2784C28.6208 26.4873 28.457 25.6035 28.457 24.6274L28.4608 24.6217Z" fill="black"/>
<path d="M45.7036 31.0451C44.8792 31.0451 44.1602 30.9016 43.5447 30.6126C42.9292 30.3237 42.4098 29.9404 41.9881 29.4627C41.5665 28.985 41.2484 28.4412 41.0358 27.8351C40.8231 27.2271 40.7139 26.6058 40.7082 25.9676C40.7026 25.3313 40.8023 24.7081 41.0056 24.1001C41.2089 23.4921 41.5213 22.9502 41.943 22.4725C42.3646 21.9948 42.8916 21.6115 43.5221 21.3225C44.1527 21.0336 44.8943 20.8901 45.7488 20.8901C46.3247 20.8901 46.8574 20.9657 47.3486 21.1148C47.8399 21.264 48.2841 21.4736 48.6813 21.7417C49.0784 22.0099 49.421 22.3309 49.709 22.7047C49.9969 23.0786 50.2303 23.4884 50.4091 23.9377C50.2905 23.9585 50.1061 23.9906 49.8576 24.034C49.6092 24.0793 49.3193 24.1304 48.9862 24.1908C48.653 24.2512 48.2841 24.3154 47.8776 24.3853C47.471 24.4551 47.0494 24.5306 46.6127 24.61C47.2677 24.6194 47.8305 24.7176 48.3029 24.9008C48.7735 25.0858 49.1612 25.3199 49.4643 25.6032C49.7673 25.8864 49.9856 26.2112 50.1192 26.5737C50.2529 26.9381 50.3075 27.3064 50.283 27.6783C50.2585 28.0522 50.1588 28.4204 49.9856 28.7829C49.8125 29.1474 49.5659 29.4684 49.2478 29.746C48.8017 30.1444 48.2841 30.4616 47.6988 30.6939C47.1134 30.928 46.4471 31.0451 45.7036 31.0451ZM42.6958 25.3086C42.6563 25.9166 42.6751 26.5454 42.7561 27.1987C42.8351 27.8501 42.9951 28.4487 43.2323 28.9907C43.4713 29.5345 43.7932 29.982 44.1997 30.3351C44.6063 30.6882 45.1239 30.8713 45.7488 30.8808C46.464 30.8713 47.1021 30.7543 47.663 30.5296C48.2239 30.3049 48.717 30.0047 49.1443 29.6251C49.6299 29.187 49.9386 28.6734 50.0666 28.0862C50.1945 27.4989 50.1305 26.9419 49.8727 26.4132C49.7146 26.0941 49.5151 25.8297 49.2779 25.622C49.0389 25.4125 48.7735 25.2463 48.4817 25.1217C48.1881 24.997 47.8738 24.9102 47.5369 24.8611C47.2 24.812 46.8574 24.7856 46.5092 24.7856C46.161 24.7856 45.7977 24.8063 45.4439 24.846C45.0919 24.8856 44.7493 24.9328 44.4162 24.9876C44.083 25.0424 43.7706 25.099 43.4788 25.1595C43.1852 25.2199 42.9255 25.2689 42.6977 25.3086H42.6958ZM42.6958 25.1443C43.0441 25.0839 43.4129 25.0197 43.8044 24.9499C44.196 24.88 44.6006 24.8063 45.0185 24.7252C45.6641 24.6156 46.3022 24.5042 46.9327 24.389C47.5632 24.2738 48.1354 24.1719 48.653 24.0832C48.574 23.6941 48.461 23.3184 48.318 22.9558C48.175 22.5933 47.9848 22.2685 47.7515 21.9853C47.518 21.7021 47.2357 21.4755 46.9026 21.3056C46.5694 21.1356 46.1798 21.0525 45.7337 21.0525C45.1785 21.0525 44.7136 21.1791 44.3409 21.434C43.9682 21.687 43.6652 22.0136 43.4318 22.4121C43.1984 22.8105 43.0252 23.2504 42.9104 23.7338C42.7956 24.2172 42.7241 24.6874 42.6939 25.1462L42.6958 25.1443Z" fill="black"/>
<path d="M51.4824 30.8809C51.968 30.8809 52.2843 30.7544 52.4273 30.4996C52.5703 30.2465 52.6475 29.85 52.6588 29.3119V23.007C52.6588 22.6993 52.6569 22.4236 52.6513 22.1857C52.6456 21.9458 52.6155 21.7457 52.5628 21.5814C52.5082 21.4172 52.416 21.2906 52.288 21.2C52.1581 21.1113 51.9699 21.0565 51.7215 21.0357V20.8865C51.9304 20.8677 52.16 20.8374 52.4141 20.7978C52.6663 20.7581 52.9204 20.709 53.1727 20.6486C53.4248 20.5882 53.6771 20.5221 53.9255 20.4466C54.174 20.371 54.3961 20.2898 54.5956 20.1992V24.3364C54.6558 23.8492 54.7876 23.3847 54.9908 22.9466C55.1941 22.5085 55.4764 22.1309 55.8397 21.8118C56.2011 21.4926 56.6434 21.2491 57.1646 21.0792C57.6864 20.9092 58.2981 20.845 59.0039 20.8846L58.9737 22.8258C58.7459 22.7766 58.5163 22.7389 58.2885 22.7144C58.0606 22.6898 57.8368 22.6766 57.6186 22.6766C57.1817 22.6766 56.779 22.7313 56.4119 22.8409C56.0449 22.9504 55.7268 23.1146 55.4595 23.3337C55.1923 23.5527 54.9796 23.8322 54.8271 24.1702C54.6728 24.5082 54.5956 24.9066 54.5956 25.3654V29.3987C54.605 29.9067 54.6878 30.2805 54.8422 30.5184C54.9965 30.7583 55.3052 30.8772 55.7719 30.8772V31.0264C55.2751 31.0056 54.8741 30.9886 54.5655 30.9735C54.2568 30.9584 53.9707 30.9508 53.7015 30.9508C53.4136 30.9508 53.1162 30.9584 52.8075 30.9735C52.4988 30.9886 52.0885 31.0056 51.5709 31.0264H51.4824V30.8772V30.8809Z" fill="black"/>
<path d="M58.1523 28.0878C58.1523 27.5798 58.2634 27.1512 58.4873 26.8038C58.7117 26.4544 58.9993 26.1674 59.3514 25.9371C59.7034 25.7086 60.0987 25.5254 60.535 25.3914C60.9719 25.2573 61.4031 25.1496 61.8303 25.0703H61.8451C61.3877 24.9816 61.0169 24.8155 60.7292 24.5775C60.441 24.3377 60.236 24.062 60.1118 23.7486C59.9876 23.4351 59.9483 23.1085 59.9933 22.7705C60.0383 22.4325 60.1625 22.1228 60.3658 21.8434C60.5692 21.5639 60.8551 21.3335 61.2225 21.1485C61.5893 20.9654 62.0296 20.8728 62.5457 20.8728C63.1404 20.8728 63.7031 20.9276 64.2374 21.0371C64.7723 21.1466 65.2445 21.326 65.6546 21.5752C66.0653 21.8245 66.4042 22.1474 66.6714 22.5458C66.9385 22.9442 67.106 23.4314 67.1755 24.0092C66.8616 24.1187 66.5472 24.2112 66.2385 24.2848C65.928 24.3604 65.621 24.4264 65.3163 24.4869C65.2861 23.9884 65.22 23.5315 65.1146 23.1123C65.0092 22.6931 64.8492 22.3324 64.631 22.0284C64.4129 21.7244 64.1321 21.4865 63.7897 21.3109C63.4468 21.1372 63.0236 21.0447 62.5172 21.0352C61.9226 21.0447 61.4333 21.1768 61.0511 21.4318C60.6689 21.6847 60.4074 22.002 60.2701 22.3796C60.1699 22.6383 60.1289 22.9008 60.1437 23.1632C60.1591 23.4276 60.2303 23.6731 60.3601 23.9034C60.4883 24.1319 60.6706 24.3339 60.9041 24.5076C61.1376 24.6814 61.4236 24.8098 61.7608 24.8891C62.3156 25.0288 62.9706 25.0836 63.7254 25.0534C64.2317 25.0326 64.7854 24.9684 65.3858 24.8589C65.9861 24.7494 66.5996 24.5907 67.2244 24.3811C67.8003 24.1923 68.3654 23.962 68.9224 23.6938C69.4778 23.4257 69.995 23.1104 70.4712 22.7535C70.9474 22.3947 71.3752 21.9793 71.7511 21.5054C72.1276 21.0333 72.4306 20.4971 72.6602 19.9004V24.4869C72.749 24.0186 72.8789 23.5673 73.0481 23.1349C73.2178 22.7025 73.432 22.3211 73.6957 21.9926C73.9594 21.664 74.2716 21.3978 74.6327 21.1938C74.9944 20.9899 75.4102 20.8823 75.8773 20.8728C76.5529 20.8426 77.1686 20.9219 77.7234 21.1126C78.2788 21.3015 78.7624 21.5752 79.1748 21.934C79.5871 22.2928 79.9238 22.7327 80.1875 23.2558C80.4507 23.7788 80.6318 24.3585 80.7315 24.9967C80.7913 24.4794 80.9007 23.9752 81.059 23.488C81.2168 23.0008 81.4315 22.5647 81.6987 22.1814C81.9658 21.798 82.2956 21.4903 82.6812 21.2561C83.0691 21.022 83.5151 20.8955 84.0215 20.8747C84.7854 20.8445 85.4706 20.9464 86.0767 21.1806C86.6827 21.4147 87.1965 21.7584 87.6186 22.2116C88.0401 22.6647 88.3653 23.2142 88.5932 23.8619C88.821 24.5095 88.9452 25.2271 88.9663 26.0126V29.3132C88.9754 29.8419 89.0528 30.2328 89.1975 30.4858C89.3405 30.7407 89.6566 30.8672 90.1425 30.8672V31.0164C89.7939 30.9975 89.4499 30.9824 89.107 30.9711C88.7646 30.9616 88.4354 30.956 88.117 30.956C87.7991 30.956 87.5035 30.9579 87.2307 30.9635C86.9578 30.9692 86.7226 30.9767 86.5227 30.9862C86.284 30.9956 86.071 31.007 85.883 31.0164V30.8672C86.1501 30.8672 86.3609 30.837 86.5153 30.7785C86.6696 30.718 86.7864 30.6274 86.8656 30.5028C86.9447 30.3782 86.9971 30.2158 87.0216 30.0175C87.0461 29.8192 87.0592 29.5851 87.0592 29.3151V26.1787C87.0592 25.5122 87.0142 24.8646 86.9259 24.2376C86.8371 23.6107 86.677 23.0556 86.4497 22.5722C86.2219 22.0888 85.9109 21.7093 85.5179 21.4299C85.1266 21.1504 84.6219 21.0163 84.0061 21.0258C83.4212 21.0466 82.9262 21.2259 82.5252 21.5639C82.1225 21.9019 81.7949 22.323 81.5426 22.8252C81.2886 23.3275 81.1057 23.8656 80.9912 24.4378C80.8762 25.0099 80.8198 25.5348 80.8198 26.0145V29.3151C80.8295 29.8438 80.9064 30.2347 81.051 30.4877C81.1946 30.7426 81.5107 30.8691 81.996 30.8691V31.0183C81.648 30.9994 81.3034 30.9843 80.961 30.973C80.6181 30.9635 80.2889 30.9579 79.9711 30.9579C79.6526 30.9579 79.3576 30.9598 79.0842 30.9654C78.8113 30.9711 78.5761 30.9786 78.3767 30.9881C78.1375 30.9975 77.925 31.0089 77.7365 31.0183V30.8691C78.0042 30.8691 78.215 30.8389 78.3693 30.7804C78.5237 30.7199 78.6405 30.6293 78.7191 30.5047C78.7982 30.38 78.8512 30.2177 78.8757 30.0194C78.9002 29.8211 78.9133 29.587 78.9133 29.317V26.1806C78.9133 25.5141 78.8677 24.8664 78.7794 24.2395C78.6912 23.6126 78.5311 23.0575 78.3033 22.5741C78.0754 22.0907 77.765 21.7112 77.3737 21.4318C76.9818 21.1523 76.4777 21.0182 75.8619 21.0276C75.3254 21.0484 74.8589 21.207 74.4618 21.5054C74.0648 21.8037 73.7373 22.187 73.4793 22.6553C73.2212 23.1236 73.0219 23.6466 72.8823 24.2244C72.7433 24.8022 72.6699 25.38 72.6585 25.9578V29.4095C72.6682 29.6587 72.6847 29.8759 72.7114 30.0591C72.7359 30.2441 72.7866 30.3952 72.8601 30.5141C72.9353 30.6331 73.0447 30.7237 73.1876 30.7823C73.3306 30.8427 73.5226 30.871 73.7618 30.871V31.0202C73.4639 31.0013 73.1233 30.9862 72.7416 30.9748C72.3594 30.9654 71.9487 30.9598 71.5124 30.9598C71.2151 30.9598 70.9041 30.9654 70.5806 30.9748C70.2587 30.9843 69.9369 30.9994 69.6208 31.0202V30.871C69.8691 30.871 70.0651 30.8389 70.208 30.7747C70.351 30.7105 70.4604 30.6161 70.5356 30.4915C70.6107 30.3668 70.6597 30.2082 70.6842 30.0138C70.7087 29.8192 70.7218 29.5889 70.7218 29.3189V25.331C70.7218 25.0231 70.7201 24.7512 70.7144 24.5171C70.7087 24.283 70.6802 24.0866 70.6238 23.928C70.5692 23.7694 70.4809 23.641 70.3624 23.5466C70.2416 23.4522 70.0685 23.3955 69.8389 23.3747C69.4305 23.624 69.0073 23.8449 68.5687 24.0394C68.1301 24.2339 67.6761 24.4057 67.2079 24.5548C67.2079 24.6342 67.2096 24.7135 67.2153 24.7947C67.221 24.874 67.2227 25.0231 67.2227 25.2422V28.0651C67.2227 28.4239 67.2244 28.7732 67.2301 29.1112C67.2358 29.4492 67.2677 29.7494 67.3264 30.0081C67.3868 30.2668 67.4842 30.4764 67.6237 30.635C67.7627 30.7936 67.9718 30.8748 68.2486 30.8748V31.0239C67.7331 31.0239 67.2922 30.9843 66.9271 30.905C66.562 30.8257 66.2607 30.6935 66.0254 30.5084C65.7885 30.3253 65.6136 30.076 65.5008 29.7607C65.3875 29.4473 65.3311 29.0507 65.3311 28.573C65.0525 29.3604 64.6157 29.9647 64.021 30.3876C63.4246 30.8106 62.6716 31.0334 61.7568 31.0523C61.2715 31.0523 60.8084 30.9994 60.3715 30.8955C59.9346 30.7917 59.553 30.6218 59.2255 30.3876C58.898 30.1535 58.6359 29.8476 58.444 29.468C58.2503 29.0904 58.1541 28.6316 58.1541 28.0934L58.1523 28.0878ZM60.0571 28.2218C60.0571 28.979 60.2268 29.5719 60.5652 29.9986C60.9041 30.4272 61.4521 30.6406 62.2085 30.6406C62.6357 30.6406 63.0424 30.5764 63.4263 30.4462C63.8102 30.3178 64.1395 30.1025 64.4203 29.8042C64.7005 29.5058 64.921 29.1168 65.0844 28.6391C65.2485 28.1614 65.3311 27.5742 65.3311 26.8755V25.0383C64.9529 25.0987 64.5895 25.1421 64.2414 25.1723C63.972 25.2026 63.7088 25.2195 63.4491 25.2252C63.1894 25.2308 62.941 25.2233 62.7018 25.2026C62.3537 25.2818 62.0205 25.3914 61.7004 25.5311C61.382 25.6708 61.1 25.8596 60.8574 26.0994C60.6125 26.3392 60.4188 26.63 60.2753 26.9737C60.1306 27.3174 60.0588 27.7328 60.0588 28.2218H60.0571Z" fill="black"/>
<path d="M91.21 30.881C91.6958 30.881 92.012 30.7545 92.1549 30.4996C92.2979 30.2466 92.3754 29.85 92.3868 29.3119V23.6944C92.3868 23.3866 92.3845 23.111 92.3788 22.873C92.3737 22.6332 92.3452 22.4331 92.2905 22.2688C92.2358 22.1045 92.1435 21.978 92.0159 21.8874C91.8861 21.7986 91.6975 21.7439 91.4492 21.7231V21.5739C91.6582 21.5551 91.8878 21.5248 92.1418 21.4852C92.3942 21.4455 92.6482 21.3964 92.9005 21.336C93.1529 21.2756 93.4046 21.2095 93.6536 21.134C93.9019 21.0584 94.1241 20.9772 94.3234 20.8866V29.4007C94.3325 29.9086 94.4157 30.2824 94.5701 30.5204C94.7244 30.7602 95.0331 30.8791 95.5014 30.8791V31.0283C95.204 31.0075 94.8503 30.9943 94.4436 30.983C94.0375 30.9735 93.6046 30.9679 93.1489 30.9679C92.8305 30.9679 92.5087 30.9735 92.1811 30.983C91.8536 30.9924 91.5318 31.0075 91.214 31.0283V30.8791L91.21 30.881ZM92.2079 19.0796C92.2079 18.751 92.3076 18.4716 92.5052 18.2431C92.7029 18.0146 92.9626 17.8994 93.2788 17.8994C93.6154 17.8994 93.8808 18.0165 94.0751 18.2507C94.2687 18.4848 94.365 18.7604 94.365 19.0796C94.365 19.3987 94.263 19.6574 94.0597 19.8859C93.8563 20.1143 93.5949 20.2295 93.2788 20.2295C92.9626 20.2295 92.716 20.1275 92.5126 19.9236C92.3093 19.7197 92.2079 19.4383 92.2079 19.0796Z" fill="black"/>
<path d="M96.5703 25.9812C96.5703 25.2448 96.6871 24.565 96.9206 23.9419C97.1542 23.3188 97.4874 22.7825 97.918 22.3293C98.3492 21.8762 98.8704 21.5231 99.4821 21.2681C100.094 21.0132 100.769 20.8867 101.515 20.8867C102.825 20.8867 104.022 21.2549 105.104 21.9913L104.538 23.9778H104.463C104.384 23.5793 104.261 23.2036 104.098 22.8505C103.934 22.4974 103.727 22.1859 103.48 21.9177C103.232 21.6496 102.945 21.4343 102.624 21.2757C102.302 21.1171 101.941 21.0359 101.544 21.0359C100.958 21.0359 100.469 21.17 100.077 21.44C99.6855 21.7081 99.3676 22.0631 99.1244 22.5012C98.8818 22.9392 98.7069 23.4396 98.6032 24.0023C98.4996 24.565 98.4472 25.1353 98.4472 25.7131C98.4472 26.3305 98.5018 26.9461 98.6106 27.5579C98.72 28.1696 98.9023 28.721 99.1626 29.2082C99.4223 29.6953 99.7607 30.0919 100.182 30.3959C100.604 30.6999 101.124 30.8509 101.739 30.8509C102.543 30.7905 103.213 30.528 103.749 30.0597C104.286 29.5915 104.707 28.9891 105.016 28.2527L105.165 28.3132C104.816 29.1591 104.331 29.8237 103.706 30.3071C103.081 30.7905 102.317 31.0322 101.414 31.0322C100.71 31.0322 100.058 30.9038 99.4633 30.6432C98.8687 30.3845 98.3566 30.0277 97.9294 29.5745C97.5022 29.1213 97.1707 28.5888 96.932 27.9752C96.6928 27.3634 96.5743 26.6987 96.5743 25.9812H96.5703Z" fill="black"/>
<path d="M14.1038 12.1439L19.8559 10.4596C20.556 10.2538 20.957 9.5193 20.7537 8.81684L19.0748 3.04641C18.7454 1.91348 17.2151 1.74543 16.6486 2.78017L12.5755 10.2349C12.0108 11.2696 12.9745 12.4743 14.1038 12.1439Z" fill="black"/>
<path d="M21.6846 8.54306C21.8898 9.24551 22.622 9.64769 23.3221 9.44374L29.7762 7.55363C30.9056 7.22323 31.0731 5.68807 30.0417 5.11972L21.7016 0.536983C20.6701 -0.0294862 19.4693 0.937288 19.7987 2.07022L21.6828 8.54494L21.6846 8.54306Z" fill="#C1272D"/>
<path d="M7.2093 24.7635L9.71642 24.029C10.4166 23.8232 10.8175 23.0886 10.6142 22.3862L9.88206 19.8711C9.55266 18.7382 8.02241 18.5701 7.45588 19.6049L5.68099 22.8526C5.11631 23.8874 6.08 25.0921 7.2093 24.7616V24.7635Z" fill="black"/>
<path d="M26.1082 40.9619L23.97 33.6129C23.7649 32.9105 23.0327 32.5083 22.3325 32.7122L8.94819 36.6321C7.81883 36.9626 7.65131 38.4977 8.68275 39.0661L18.1465 44.2701C18.4533 44.4381 18.8147 44.4777 19.1516 44.3796L25.2104 42.6047C25.9106 42.3988 26.3115 41.6643 26.1082 40.9619Z" fill="black"/>
<path d="M27.1208 44.4391C26.9156 43.7367 26.1834 43.3344 25.4832 43.5384L22.8896 44.2975C21.7602 44.6279 21.5927 46.163 22.6242 46.7314L25.9745 48.5743C27.0059 49.1408 28.2068 48.174 27.8774 47.0411L27.1208 44.4391Z" fill="#FF0000"/>
<path d="M33.5128 7.47203L10.9113 14.0903C10.5743 14.1885 10.292 14.4169 10.1226 14.7247L9.90995 15.1156C9.74243 15.4234 9.7029 15.7859 9.80076 16.1239L11.5437 22.1153C11.6585 22.508 11.9371 22.8064 12.2834 22.9574L34.1565 7.4494C33.9457 7.40408 33.7236 7.41163 33.5128 7.47391V7.47203Z" fill="#FF0000"/>
<path d="M37.2827 14.5782L35.5397 8.58681C35.4419 8.24881 35.2141 7.96561 34.9073 7.79567L34.5177 7.5823C34.4028 7.51996 34.2806 7.47464 34.1563 7.44824L12.2832 22.9562C12.5561 23.0771 12.8723 23.1054 13.181 23.0148L36.3848 16.219C37.085 16.0133 37.4859 15.2787 37.2827 14.5763V14.5782Z" fill="#FF0000"/>
<path d="M4.01494 26.7115C3.67803 26.8097 3.3957 27.0382 3.2263 27.346L0.197833 32.8898C-0.152258 33.5318 0.0811382 34.3362 0.721084 34.6874L1.30645 35.0084L23.1193 21.1167L4.01494 26.7115Z" fill="#FF0000"/>
<path d="M24.7571 22.0182C24.5519 21.3157 23.8197 20.9135 23.1195 21.1175L1.30664 35.0092L4.20712 36.6047C4.51392 36.7728 4.8753 36.8125 5.2122 36.7143L25.8958 30.6568C26.596 30.451 26.9969 29.7165 26.7936 29.0141L24.7571 22.0182Z" fill="#C1272D"/>
<path d="M28.5384 40.4472L28.6476 40.4604C28.7209 40.9551 28.8527 41.412 29.0447 41.8293C29.2367 42.2466 29.4832 42.6073 29.7844 42.9094C30.0855 43.2115 30.4394 43.4476 30.8478 43.6175C31.2544 43.7874 31.7099 43.8724 32.2125 43.8724C32.6604 43.8724 33.0839 43.8233 33.4811 43.7289C33.8782 43.6326 34.2264 43.4834 34.5238 43.2814C34.8212 43.0793 35.0565 42.8244 35.2296 42.5185C35.4028 42.2108 35.4894 41.8425 35.4894 41.4101C35.4894 41.0061 35.3821 40.67 35.1675 40.3981C34.9529 40.128 34.6706 39.8958 34.3243 39.7032C33.9761 39.5106 33.5789 39.3425 33.131 39.2009C32.683 39.0593 32.2237 38.9177 31.7532 38.7742C31.2826 38.6325 30.8234 38.474 30.3754 38.3003C29.9275 38.1265 29.5303 37.9112 29.1821 37.6525C28.8339 37.3957 28.5535 37.0861 28.3388 36.7236C28.1243 36.361 28.017 35.9135 28.017 35.3829C28.017 34.8145 28.1525 34.3349 28.4217 33.946C28.6909 33.557 29.0428 33.2397 29.4776 32.9962C29.9124 32.7526 30.4037 32.577 30.9514 32.4675C31.4991 32.358 32.0581 32.3032 32.6247 32.3032C33.3738 32.3032 34.0645 32.3806 34.6951 32.5373C35.3256 32.6941 35.9656 32.932 36.6149 33.253L35.9298 35.6321L35.7924 35.6189C35.7736 35.1696 35.6795 34.7504 35.5119 34.3595C35.3425 33.9705 35.1167 33.6344 34.8325 33.3549C34.5483 33.0755 34.217 32.8546 33.8387 32.6941C33.4585 32.5336 33.0501 32.4524 32.6115 32.4524C32.2087 32.4524 31.8247 32.5052 31.4596 32.611C31.0944 32.7167 30.7688 32.8697 30.4865 33.0717C30.2023 33.2737 29.9783 33.5249 29.8145 33.8289C29.6508 34.1329 29.5679 34.4747 29.5679 34.8599C29.5679 35.245 29.6753 35.5509 29.8898 35.8021C30.1044 36.0551 30.3886 36.2647 30.7406 36.4347C31.0926 36.6046 31.4953 36.7537 31.9471 36.8821C32.3988 37.0105 32.8618 37.1409 33.3324 37.2749C33.8029 37.409 34.2641 37.5563 34.7177 37.7224C35.1694 37.8867 35.5722 38.0963 35.9242 38.3493C36.2761 38.6024 36.5604 38.9139 36.7749 39.284C36.9895 39.656 37.0968 40.1111 37.0968 40.6529C37.0968 41.2855 36.965 41.818 36.6996 42.2485C36.4342 42.6791 36.0785 43.0265 35.6305 43.2871C35.1826 43.5495 34.6631 43.7345 34.074 43.8441C33.4848 43.9536 32.8694 44.0084 32.2294 44.0084C31.4426 44.0084 30.6954 43.9158 29.9877 43.7326C29.28 43.5495 28.5911 43.2512 27.9248 42.8376L28.5421 40.4434L28.5384 40.4472Z" fill="#FF0000"/>
<path d="M42.6755 44.01C41.9716 44.01 41.3354 43.8853 40.7688 43.638C40.2023 43.3906 39.7205 43.0507 39.3214 42.6202C38.9243 42.1897 38.6175 41.6856 38.4029 41.1077C38.1884 40.53 38.0811 39.9068 38.0811 39.2365C38.0811 38.5662 38.1902 37.996 38.4105 37.4408C38.6307 36.8857 38.9413 36.4022 39.3422 35.9888C39.7449 35.5752 40.2306 35.2523 40.8027 35.0182C41.375 34.7841 42.0111 34.667 42.7151 34.667C43.419 34.667 44.0684 34.786 44.6349 35.0238C45.2015 35.2618 45.6852 35.5903 46.088 36.0076C46.4908 36.4249 46.7994 36.9158 47.014 37.4804C47.2286 38.045 47.3359 38.6568 47.3359 39.3177C47.3359 39.9786 47.2286 40.6092 47.014 41.1814C46.7994 41.7554 46.4889 42.2501 46.0824 42.6674C45.6758 43.0847 45.1845 43.4133 44.6086 43.6512C44.0326 43.8891 43.3889 44.0081 42.6755 44.0081V44.01ZM39.8786 39.2497C39.8786 39.5443 39.8937 39.8615 39.9275 40.2052C39.9595 40.5488 40.016 40.8906 40.0988 41.2305C40.1816 41.5704 40.2908 41.897 40.4282 42.2142C40.5656 42.5314 40.7407 42.8109 40.9552 43.0526C41.1698 43.2962 41.422 43.4907 41.7099 43.638C41.9979 43.7853 42.3386 43.8589 42.732 43.8589C43.3174 43.8589 43.7917 43.7041 44.1587 43.3906C44.5239 43.0791 44.81 42.6938 45.0151 42.235C45.2203 41.7762 45.3596 41.2796 45.433 40.7433C45.5064 40.207 45.5421 39.718 45.5421 39.278C45.5421 38.9854 45.5252 38.67 45.4932 38.3358C45.4612 38.0016 45.4047 37.6693 45.3219 37.3388C45.2391 37.0084 45.1299 36.6893 44.9925 36.3834C44.8551 36.0756 44.682 35.8056 44.4712 35.5715C44.2604 35.3373 44.01 35.1523 43.7164 35.0144C43.4247 34.8766 43.0859 34.8086 42.7019 34.8086C42.3179 34.8086 41.9791 34.8766 41.6874 35.0144C41.3956 35.1523 41.1453 35.3373 40.9401 35.5715C40.735 35.8056 40.5637 36.0737 40.4263 36.3758C40.2889 36.678 40.1798 36.9952 40.0969 37.3256C40.0141 37.6561 39.9576 37.9884 39.9257 38.3226C39.8936 38.6568 39.8767 38.9665 39.8767 39.2516L39.8786 39.2497Z" fill="#FF0000"/>
<path d="M50.3005 43.9547C49.9711 43.9547 49.6418 43.9604 49.3124 43.9679C48.983 43.9774 48.6536 43.9906 48.3242 44.0095V43.8717C48.7722 43.8717 49.062 43.7546 49.1957 43.5205C49.3274 43.2863 49.3989 42.9219 49.4083 42.4271V34.2285C49.4083 33.9433 49.4065 33.6922 49.4008 33.4713C49.3952 33.2503 49.3688 33.0653 49.318 32.9142C49.2672 32.7632 49.1825 32.6461 49.0639 32.563C48.9454 32.4799 48.7722 32.4309 48.5425 32.412V32.2741C48.7346 32.2553 48.9473 32.2288 49.1806 32.191C49.414 32.1533 49.6474 32.108 49.8808 32.0532C50.1142 31.9985 50.3438 31.9362 50.5735 31.8682C50.8012 31.8002 51.0083 31.7228 51.1908 31.6416V42.5102C51.2002 42.9785 51.2755 43.3222 51.4167 43.5412C51.5579 43.7621 51.8439 43.8717 52.2731 43.8717V44.0095C51.9437 43.9906 51.6143 43.9774 51.2849 43.9679C50.9556 43.9585 50.6262 43.9547 50.2968 43.9547H50.3005Z" fill="#FF0000"/>
<path d="M54.7853 34.6973C55.2784 34.6878 55.7169 34.6746 56.1009 34.6558V39.2102C56.1009 39.7879 56.1348 40.3582 56.2044 40.9228C56.2722 41.4874 56.4058 41.9896 56.6014 42.4296C56.7973 42.8695 57.0742 43.2245 57.4319 43.4964C57.7873 43.7664 58.2595 43.893 58.8434 43.8741C59.3458 43.8646 59.7844 43.7174 60.1592 43.4341C60.5334 43.149 60.8438 42.7883 61.0905 42.3465C61.3371 41.9066 61.5256 41.4156 61.6532 40.8737C61.7814 40.3336 61.8492 39.7955 61.8589 39.2649V36.1701C61.8492 35.7018 61.7757 35.3582 61.6384 35.1391C61.5011 34.9182 61.2129 34.8087 60.7743 34.8087V34.6708C61.0848 34.6897 61.3542 34.7011 61.5837 34.7048C61.8116 34.7105 62.0183 34.7124 62.2012 34.7124C62.4478 34.7124 62.6791 34.7105 62.8938 34.7048C63.1086 34.7011 63.3569 34.6897 63.6411 34.6708V42.0576C63.6411 42.2313 63.6429 42.4239 63.6486 42.6354C63.6525 42.8469 63.6822 43.0414 63.7368 43.2207C63.7915 43.4001 63.8838 43.5512 64.012 43.6739C64.1396 43.7986 64.3281 43.859 64.5747 43.859V44.0101C64.0985 44.0101 63.6901 43.9742 63.3472 43.9005C63.0049 43.8268 62.7224 43.7061 62.5042 43.5361C62.2838 43.3662 62.122 43.1358 62.0166 42.8412C61.9113 42.5486 61.8589 42.1803 61.8589 41.7404V40.6679C61.7757 41.0814 61.6555 41.4836 61.4954 41.8782C61.3354 42.2728 61.1303 42.6259 60.878 42.9375C60.6257 43.2491 60.33 43.504 59.986 43.7003C59.6431 43.8986 59.2575 44.0006 58.8263 44.0101C58.1222 44.0383 57.494 43.9458 56.9403 43.7343C56.387 43.5229 55.9202 43.2132 55.5419 42.8054C55.1617 42.3975 54.8699 41.899 54.6648 41.3118C54.4596 40.7245 54.3523 40.0693 54.3429 39.3442V36.2362C54.3335 35.7509 54.262 35.3903 54.1302 35.1561C53.9985 34.922 53.7067 34.8049 53.2588 34.8049V34.6671C53.7801 34.6954 54.2865 34.703 54.7815 34.6954L54.7853 34.6973Z" fill="#FF0000"/>
<path d="M68.0451 32.3857H68.1955V34.6686H69.1273V34.8064H68.1955V42.2555C68.1955 42.5633 68.2239 42.8352 68.2786 43.075C68.3333 43.3129 68.4256 43.5036 68.5532 43.6453C68.6813 43.7869 68.8733 43.8587 69.129 43.8587V44.0097C68.6528 44.0097 68.2484 43.9738 67.9112 43.9002C67.5746 43.8265 67.2978 43.7057 67.0813 43.5357C66.8632 43.3658 66.7031 43.1355 66.5977 42.8409C66.494 42.5482 66.4416 42.18 66.4416 41.74V36.6229C66.4416 36.3472 66.4394 36.1018 66.4337 35.8865C66.4285 35.6713 66.4018 35.4881 66.3511 35.3371C66.3004 35.186 66.2138 35.0651 66.0913 34.9726C65.9672 34.882 65.7923 34.8253 65.5645 34.8083V34.6705C67.1377 34.6705 67.9659 33.9096 68.0468 32.3876L68.0451 32.3857Z" fill="#FF0000"/>
<path d="M70.1296 43.8723C70.5773 43.8723 70.8673 43.7552 71.0011 43.5211C71.1327 43.287 71.2045 42.9225 71.2136 42.4278V37.256C71.2136 36.9727 71.2119 36.7197 71.2062 36.4988C71.2005 36.2778 71.1743 36.0928 71.1236 35.9417C71.0729 35.7907 70.988 35.6736 70.8696 35.5905C70.7505 35.5074 70.5773 35.4584 70.3478 35.4394V35.3016C70.5398 35.2828 70.7528 35.2563 70.9863 35.2185C71.2193 35.1826 71.4528 35.1354 71.6864 35.0807C71.9199 35.026 72.1495 34.9636 72.379 34.8957C72.6068 34.8277 72.8136 34.7521 72.9965 34.669V42.5109C73.0056 42.9792 73.0808 43.3228 73.222 43.5418C73.3633 43.7628 73.6492 43.8723 74.0787 43.8723V44.0101C73.8036 43.9913 73.4801 43.9781 73.1053 43.9686C72.731 43.9592 72.3317 43.9554 71.9119 43.9554C71.6186 43.9554 71.323 43.961 71.0199 43.9686C70.7186 43.9781 70.4213 43.9913 70.1279 44.0101V43.8723H70.1296ZM71.0484 33.0037C71.0484 32.7016 71.1407 32.4448 71.323 32.2333C71.5058 32.0218 71.7428 31.916 72.0361 31.916C72.3471 31.916 72.5915 32.0237 72.7703 32.2389C72.9492 32.4542 73.0375 32.7091 73.0375 33.0018C73.0375 33.2944 72.9435 33.5342 72.7572 33.7438C72.5693 33.9553 72.33 34.061 72.0361 34.061C71.7428 34.061 71.5166 33.9666 71.3304 33.7797C71.1441 33.5928 71.0501 33.3322 71.0501 33.0018L71.0484 33.0037Z" fill="#FF0000"/>
<path d="M79.6589 44.01C78.9549 44.01 78.3186 43.8853 77.7524 43.638C77.1857 43.3906 76.7038 43.0507 76.305 42.6202C75.908 42.1897 75.601 41.6856 75.3863 41.1077C75.1721 40.53 75.0645 39.9068 75.0645 39.2365C75.0645 38.5662 75.1738 37.996 75.3937 37.4408C75.6141 36.8857 75.9246 36.4022 76.3256 35.9888C76.7266 35.5752 77.2141 35.2523 77.786 35.0182C78.3568 34.7841 78.9947 34.667 79.6988 34.667C80.4022 34.667 81.0516 34.786 81.6183 35.0238C82.1851 35.2618 82.6687 35.5903 83.0714 36.0076C83.4741 36.4249 83.7828 36.9158 83.9976 37.4804C84.2123 38.045 84.3194 38.6568 84.3194 39.3177C84.3194 39.9786 84.2123 40.6092 83.9976 41.1814C83.7828 41.7535 83.4724 42.2501 83.0657 42.6674C82.659 43.0847 82.168 43.4133 81.5921 43.6512C81.0163 43.8891 80.3726 44.0081 79.6589 44.0081V44.01ZM76.8621 39.2497C76.8621 39.5443 76.8769 39.8615 76.9088 40.2052C76.9413 40.5488 76.9977 40.8906 77.0803 41.2305C77.1634 41.5704 77.2722 41.897 77.4095 42.2142C77.5474 42.5314 77.7222 42.8109 77.9387 43.0526C78.1534 43.2962 78.4052 43.4907 78.6934 43.638C78.9816 43.7853 79.3222 43.8589 79.7153 43.8589C80.3008 43.8589 80.7753 43.7041 81.1421 43.3906C81.5073 43.0791 81.7932 42.6938 81.9988 42.235C82.2039 41.7762 82.3429 41.2796 82.4163 40.7433C82.4898 40.207 82.5257 39.718 82.5257 39.278C82.5257 38.9854 82.5086 38.67 82.4767 38.3358C82.4448 38.0016 82.3884 37.6693 82.3053 37.3388C82.2227 37.0084 82.1133 36.6893 81.976 36.3834C81.8388 36.0775 81.6656 35.8056 81.4548 35.5715C81.2441 35.3373 80.9935 35.1523 80.7001 35.0144C80.4062 34.8766 80.0696 34.8086 79.6851 34.8086C79.3012 34.8086 78.9628 34.8766 78.6706 35.0144C78.3773 35.1523 78.1289 35.3373 77.9239 35.5715C77.7182 35.8056 77.5474 36.0737 77.4095 36.3758C77.2722 36.678 77.1634 36.9952 77.0803 37.3256C76.9977 37.6561 76.9413 37.9884 76.9088 38.3226C76.8769 38.6568 76.8621 38.9665 76.8621 39.2516V39.2497Z" fill="#FF0000"/>
<path d="M85.3096 43.8718C85.7579 43.8718 86.0473 43.7548 86.1811 43.5206C86.3127 43.2865 86.3845 42.9221 86.3936 42.4273V36.621C86.3936 36.3378 86.3919 36.0848 86.3862 35.8638C86.3805 35.6429 86.3543 35.4579 86.3036 35.3068C86.2529 35.1558 86.168 35.0387 86.0496 34.9556C85.9311 34.8725 85.7579 34.8234 85.5278 34.8046V34.6667C85.7198 34.6478 85.9328 34.6214 86.1663 34.5836C86.3993 34.5478 86.6328 34.5006 86.8664 34.4458C87.0999 34.391 87.3295 34.3288 87.559 34.2608C87.7869 34.1928 87.9936 34.1173 88.1765 34.0342V38.0108C88.2591 37.5708 88.3775 37.1516 88.5319 36.7513C88.6863 36.3529 88.8839 36.0017 89.1214 35.6996C89.3584 35.3974 89.6443 35.152 89.9776 34.9632C90.3108 34.7744 90.6987 34.6762 91.1373 34.6667C91.8407 34.6384 92.4713 34.7309 93.0284 34.9424C93.586 35.1539 94.0582 35.4636 94.4478 35.8714C94.8357 36.2793 95.1348 36.774 95.3455 37.3574C95.5563 37.9409 95.6696 38.5942 95.6884 39.3174V42.4406C95.6975 42.9277 95.767 43.2865 95.9009 43.5206C96.0325 43.7548 96.3241 43.8718 96.7724 43.8718V44.0097C96.4523 43.9908 96.1344 43.9776 95.82 43.9681C95.5039 43.9587 95.2008 43.9549 94.9092 43.9549C94.617 43.9549 94.3442 43.9568 94.0941 43.9625C93.8418 43.9681 93.6253 43.9738 93.4425 43.9833C93.2226 43.9927 93.0267 44.0021 92.8535 44.0115V43.8737C93.1001 43.8737 93.2938 43.8454 93.4373 43.7906C93.578 43.7359 93.6857 43.6509 93.7592 43.5357C93.8321 43.4206 93.8794 43.2714 93.9021 43.0882C93.9244 42.9051 93.9357 42.6898 93.9357 42.4425V39.4704C93.9357 38.8567 93.8942 38.2638 93.8116 37.6954C93.729 37.1271 93.5837 36.6248 93.373 36.1886C93.1622 35.7525 92.8763 35.4107 92.5169 35.1633C92.1552 34.916 91.6921 34.797 91.1236 34.8065C90.6212 34.8253 90.1866 34.9745 89.8215 35.2539C89.4564 35.5334 89.1533 35.8941 88.9158 36.334C88.6789 36.774 88.4983 37.2649 88.3741 37.8069C88.2499 38.3487 88.1839 38.885 88.1742 39.4156V42.5104C88.1839 42.9787 88.2591 43.3224 88.4003 43.5414C88.5416 43.7624 88.8275 43.8718 89.2564 43.8718V44.0097C88.799 43.9908 88.4282 43.9757 88.1463 43.9625C87.8621 43.9493 87.5983 43.9417 87.35 43.9417C87.0845 43.9417 86.81 43.9493 86.5275 43.9625C86.2432 43.9757 85.865 43.9927 85.3888 44.0097H85.3057V43.8718H85.3096Z" fill="#FF0000"/>
<path d="M98.8986 38.919C98.6234 38.7075 98.4207 38.4564 98.2885 38.1618C98.1569 37.8691 98.0949 37.5632 98.104 37.2479C98.1137 36.9306 98.1985 36.6191 98.358 36.3132C98.5181 36.0054 98.7533 35.7316 99.0643 35.4881C99.3748 35.2445 99.7661 35.0481 100.237 34.897C100.707 34.746 101.262 34.6704 101.903 34.6704C102.241 34.6704 102.55 34.6856 102.828 34.7177C103.107 34.7497 103.372 34.7913 103.625 34.8422C103.875 34.8933 104.116 34.9556 104.343 35.0273C104.571 35.1009 104.805 35.1784 105.044 35.2614L104.536 37.2554H104.427C104.382 36.8985 104.291 36.5681 104.159 36.2641C104.026 35.962 103.858 35.7033 103.651 35.4861C103.446 35.2709 103.205 35.1009 102.93 34.9764C102.655 34.8517 102.35 34.7913 102.011 34.7913C101.398 34.7913 100.899 34.9008 100.509 35.1217C100.12 35.3426 99.8413 35.6013 99.6738 35.8997C99.5046 36.198 99.4425 36.5058 99.4893 36.8212C99.5348 37.1384 99.6909 37.3914 99.9563 37.584C100.184 37.7482 100.512 37.8842 100.937 37.99C101.362 38.0957 101.812 38.2014 102.288 38.3072C102.764 38.4129 103.232 38.5376 103.694 38.6792C104.155 38.8208 104.538 39.0077 104.839 39.2362C105.121 39.4571 105.34 39.7271 105.49 40.0481C105.64 40.3691 105.712 40.7071 105.703 41.0602C105.693 41.4133 105.601 41.7664 105.428 42.1195C105.255 42.4726 104.988 42.7898 104.626 43.0693C104.265 43.3488 103.805 43.5753 103.248 43.7509C102.691 43.9246 102.029 44.0115 101.261 44.0115C100.611 44.0115 100.013 43.9454 99.4648 43.8114C98.9174 43.6792 98.3489 43.4601 97.7656 43.158L98.3284 41.1357H98.3962C98.4412 41.5493 98.5466 41.9231 98.7123 42.2573C98.8758 42.5915 99.0888 42.8786 99.3503 43.1165C99.61 43.3544 99.917 43.5413 100.268 43.6735C100.62 43.8076 101.003 43.8737 101.413 43.8737C102.098 43.8737 102.648 43.7434 103.058 43.4809C103.469 43.2185 103.764 42.9126 103.943 42.5594C104.122 42.2064 104.19 41.8514 104.148 41.4926C104.106 41.1357 103.971 40.8544 103.743 40.6542C103.532 40.4711 103.224 40.3257 102.817 40.22C102.411 40.1142 101.974 40.0122 101.507 39.9103C101.04 39.8102 100.575 39.6855 100.109 39.5383C99.6419 39.391 99.2409 39.1852 98.902 38.919H98.8986Z" fill="#FF0000"/>
<path d="M48.1116 48.2502C48.1304 48.2578 48.1398 48.2729 48.1398 48.2974C48.1398 48.322 48.1342 48.3484 48.1229 48.3768C48.1116 48.4051 48.1022 48.4296 48.0965 48.4504C47.8951 48.9225 47.658 49.3737 47.3831 49.8061C47.1084 50.2386 46.779 50.62 46.3931 50.9485C46.1899 51.1185 45.9734 51.2714 45.7475 51.4093C45.5217 51.5471 45.277 51.6623 45.0172 51.7548C44.8516 51.8152 44.7029 51.8568 44.5674 51.8794C44.4319 51.9021 44.2757 51.9134 44.095 51.9116C43.9933 51.9153 43.8917 51.9116 43.79 51.904C43.6884 51.8964 43.5849 51.8776 43.4814 51.8511C42.9995 51.7133 42.6419 51.4187 42.4066 50.9693C42.3276 50.8126 42.2655 50.654 42.2203 50.4916C42.1751 50.3311 42.1412 50.1687 42.1205 50.0063C42.0659 49.5701 42.0641 49.1434 42.1149 48.7223C42.1827 48.1369 42.3012 47.5742 42.4706 47.0361C42.64 46.4961 42.8527 45.9787 43.1106 45.4802C43.391 44.927 43.7355 44.4209 44.1458 43.9602C44.43 43.6411 44.7519 43.3673 45.117 43.1407C45.388 42.967 45.6892 42.8556 46.0205 42.8008C46.1673 42.7744 46.3141 42.782 46.4628 42.8197C46.6961 42.8764 46.8449 43.0198 46.907 43.2502C46.9521 43.4372 46.9521 43.6694 46.907 43.9451C46.8618 44.2208 46.7903 44.5097 46.6943 44.8099C46.5964 45.1101 46.4892 45.3896 46.3724 45.6464C46.2538 45.9032 46.1466 46.1071 46.0487 46.2601C46.0205 46.2997 45.9847 46.3224 45.9433 46.3318C45.9019 46.3394 45.8567 46.3375 45.8059 46.3242C45.7795 46.3186 45.7588 46.3035 45.7438 46.2827C45.7287 46.2601 45.725 46.2393 45.7344 46.2204C45.7438 46.1883 45.755 46.1581 45.772 46.1298C45.7795 46.1146 45.7871 46.0958 45.7965 46.0769C45.8322 45.99 45.8755 45.8937 45.9226 45.7899C46.0261 45.5557 46.1353 45.3008 46.2482 45.0233C46.3612 44.7457 46.4534 44.4681 46.523 44.1924C46.5926 43.9168 46.619 43.6675 46.6002 43.4428C46.5663 43.0652 46.3743 42.9236 46.028 43.0198C45.8755 43.0614 45.7325 43.118 45.6007 43.1879C45.469 43.2578 45.3429 43.3352 45.2205 43.424C44.9796 43.5996 44.7594 43.794 44.5598 44.0093C44.3604 44.2226 44.1796 44.4512 44.014 44.6947C43.1971 45.8843 42.6965 47.2344 42.5101 48.7431C42.4556 49.1793 42.4574 49.6268 42.5139 50.08C42.5459 50.3405 42.6212 50.5992 42.7417 50.8504C42.864 51.0977 43.007 51.2884 43.1746 51.4206C43.3421 51.5528 43.5152 51.6377 43.6959 51.6793C43.8766 51.7208 44.046 51.7321 44.2041 51.7133C44.4827 51.6812 44.7462 51.6075 44.9928 51.4942C45.4821 51.2714 45.8812 51.0335 46.1918 50.7805C46.5023 50.5274 46.7621 50.2631 46.9729 49.9856C47.1837 49.708 47.3813 49.4172 47.5639 49.1132C47.6372 48.9923 47.7013 48.8772 47.7558 48.7657C47.8199 48.6336 47.9027 48.4863 48.0062 48.3239C48.0401 48.2729 48.0796 48.2502 48.121 48.2559L48.1116 48.2502Z" fill="black"/>
<path d="M50.1501 48.4774C50.1124 48.5378 50.071 48.602 50.0258 48.6699C49.8056 48.9928 49.6287 49.1854 49.4951 49.2477C49.3614 49.31 49.2504 49.3271 49.16 49.2987C49.0716 49.2704 48.9982 49.2194 48.9436 49.1495C48.8871 49.0797 48.8495 49.0004 48.8269 48.9116C48.7347 49.125 48.5728 49.2326 48.345 49.2326C48.2171 49.2326 48.1135 49.176 48.0344 49.0627C47.9554 48.9494 47.9046 48.8078 47.8839 48.6379C47.8632 48.4679 47.8782 48.2942 47.9328 48.1186C47.946 48.06 47.9817 48.0204 48.0401 47.9996C48.0797 47.9845 48.123 47.9845 48.1662 48.0034C48.2095 48.0223 48.2321 48.0506 48.2358 48.0884C48.2358 48.128 48.2321 48.1658 48.2264 48.2035C48.2189 48.2319 48.2133 48.2602 48.2114 48.2866C48.2057 48.3905 48.2077 48.5056 48.217 48.6303C48.2264 48.7549 48.2603 48.8626 48.3149 48.9513C48.3695 49.0231 48.4297 49.0306 48.4975 48.9777C48.5634 48.9248 48.6217 48.8418 48.6725 48.7304C48.712 48.6416 48.7422 48.5529 48.7648 48.466C48.7873 48.3791 48.8005 48.3112 48.8081 48.2621L48.8175 48.2224C48.8269 48.1847 48.8381 48.1469 48.8475 48.111C48.8626 48.0582 48.8796 48.0053 48.8947 47.9543C48.9228 47.8561 48.9925 47.8146 49.1036 47.8297C49.1713 47.8354 49.209 47.8694 49.2146 47.9298C49.2202 48.0128 49.2221 48.0959 49.2184 48.1771C49.2146 48.264 49.2108 48.349 49.2052 48.432C49.1977 48.5529 49.192 48.6718 49.1902 48.7908C49.1863 48.9645 49.2598 49.0325 49.4066 48.9966C49.5534 48.9607 49.7473 48.7492 49.9863 48.3603C50.0089 48.3206 50.0258 48.2753 50.0334 48.2224C50.0409 48.1696 50.0654 48.1129 50.1068 48.0487C50.1613 47.9713 50.2536 47.926 50.3854 47.9147C50.4493 47.909 50.5095 47.9128 50.5642 47.9241C50.6206 47.9373 50.6714 47.9638 50.7185 48.0053C50.7279 48.0147 50.7354 48.026 50.7411 48.0393C50.7467 48.0525 50.743 48.0676 50.7354 48.0865C50.7204 48.1148 50.6959 48.1299 50.6639 48.1299C50.6413 48.1299 50.6187 48.1262 50.5961 48.1204C50.5736 48.111 50.5528 48.1016 50.534 48.0922L50.4964 48.0732C50.455 48.0582 50.423 48.06 50.4004 48.0789C50.3778 48.0997 50.3665 48.1299 50.3665 48.1734C50.3703 48.247 50.4004 48.3263 50.4569 48.4112C50.5134 48.4962 50.5717 48.5736 50.6281 48.6435C50.6507 48.668 50.6714 48.6926 50.6865 48.7152C50.7016 48.7304 50.7448 48.7285 50.8126 48.7077C50.8804 48.687 51.0046 48.6284 51.1871 48.5321C51.3679 48.4358 51.4601 48.4056 51.4601 48.4377C51.4601 48.4698 51.3904 48.5302 51.2493 48.6152C51.1081 48.7002 51.0046 48.7643 50.9387 48.8078C50.8728 48.8512 50.8389 48.8776 50.8389 48.8871C50.8521 48.9154 50.8653 48.9645 50.8804 49.0325C50.8954 49.1004 50.9011 49.1741 50.8973 49.2553C50.8935 49.3346 50.8672 49.4063 50.8201 49.4687C50.7731 49.531 50.6922 49.5687 50.5811 49.582C50.4701 49.5914 50.3703 49.5744 50.2818 49.531C50.1934 49.4875 50.1388 49.4252 50.1162 49.344C50.0936 49.2628 50.1199 49.1684 50.1971 49.0589C50.2479 48.9985 50.3082 48.9456 50.3797 48.9003C50.4042 48.8852 50.4287 48.8663 50.455 48.8474C50.3703 48.7549 50.2893 48.6586 50.2121 48.5604C50.1896 48.5321 50.1689 48.5038 50.1501 48.4792V48.4774ZM50.4889 49.4158C50.5303 49.412 50.5585 49.3894 50.5717 49.3459C50.5848 49.3025 50.5886 49.2553 50.5867 49.2024C50.583 49.1495 50.5792 49.1118 50.5773 49.0854C50.5717 49.0703 50.5623 49.0589 50.5472 49.0551C50.5322 49.0514 50.519 49.0514 50.5058 49.057C50.4587 49.0948 50.423 49.142 50.4004 49.2006C50.3778 49.2591 50.3797 49.31 50.406 49.3535C50.4154 49.3686 50.4268 49.3837 50.4399 49.395C50.4531 49.4063 50.4719 49.4139 50.4907 49.4177L50.4889 49.4158Z" fill="black"/>
<path d="M52.9031 48.5777C52.9821 48.5002 53.0179 48.4814 53.0066 48.5192C52.9953 48.5569 52.952 48.6268 52.8748 48.7288C52.7976 48.8307 52.7035 48.9384 52.5887 49.0573C52.4739 49.1744 52.3535 49.2764 52.2255 49.3632C52.0975 49.4501 51.977 49.4973 51.8622 49.5029C51.721 49.5029 51.61 49.4614 51.5253 49.3783C51.4406 49.2952 51.3804 49.1838 51.3446 49.0478C51.3088 48.9119 51.2938 48.7628 51.2994 48.6022C51.3069 48.4229 51.3126 48.2454 51.3182 48.066C51.322 47.9753 51.3239 47.8885 51.3277 47.8016C51.3352 47.6581 51.3408 47.5146 51.3427 47.3711C51.3465 47.3258 51.3389 47.288 51.3202 47.2578C51.3032 47.2276 51.2712 47.2106 51.226 47.2068C51.1752 47.203 51.1112 47.203 51.0359 47.203H50.8646C50.7987 47.1955 50.7536 47.1785 50.731 47.1502C50.7084 47.1218 50.7272 47.0936 50.7837 47.0633C50.8251 47.0482 50.8722 47.0388 50.9305 47.0369C50.987 47.0369 51.0434 47.0369 51.098 47.0388C51.1319 47.0425 51.1639 47.0425 51.1883 47.0425C51.273 47.0425 51.3258 47.0293 51.3446 47.0029C51.3634 46.9765 51.3747 46.9236 51.3785 46.8424C51.3841 46.7574 51.3879 46.6725 51.3916 46.5875C51.3954 46.5422 51.3973 46.4969 51.4029 46.4534C51.4029 46.3873 51.4199 46.3269 51.4557 46.2722C51.4933 46.2212 51.5404 46.2023 51.5987 46.2136C51.6495 46.2268 51.6777 46.2589 51.6834 46.3099C51.6871 46.3949 51.689 46.4798 51.689 46.5648C51.6928 46.612 51.6928 46.6612 51.689 46.7084C51.689 46.7593 51.689 46.8122 51.6928 46.8669C51.689 46.9425 51.6984 46.9897 51.7192 47.0105C51.7398 47.0312 51.7888 47.0406 51.8697 47.0406H52.2556C52.3139 47.0406 52.4852 47.0369 52.7713 47.0293C53.0574 47.0218 53.2118 47.0444 53.2343 47.0992C53.2569 47.154 53.0762 47.1861 52.6904 47.1936C52.457 47.2068 52.2763 47.2125 52.1502 47.2125C52.0655 47.2087 51.9883 47.2087 51.9206 47.2087C51.8057 47.2087 51.7361 47.2295 51.7098 47.2692C51.6834 47.3088 51.6702 47.39 51.674 47.5089C51.6702 47.6128 51.6665 47.7374 51.6589 47.8828C51.6401 48.183 51.6307 48.4889 51.6307 48.8024C51.6382 49.0177 51.6759 49.1574 51.7455 49.2197C51.8151 49.2839 51.9055 49.2952 52.0165 49.2556C52.1276 49.2159 52.248 49.1441 52.3779 49.0422C52.5078 48.9402 52.6358 48.8307 52.7638 48.7117C52.792 48.6759 52.824 48.6419 52.8636 48.6098C52.8767 48.5985 52.888 48.5871 52.9011 48.5777H52.9031Z" fill="black"/>
<path d="M54.5428 48.4338C54.5654 48.4111 54.5766 48.4395 54.5766 48.5131C54.5766 48.5886 54.5108 48.6925 54.3734 48.8265C54.236 48.9606 54.0948 49.0248 53.9499 49.0172C53.9179 49.0135 53.8915 49.0172 53.869 49.0248C53.8463 49.0323 53.8275 49.0512 53.8106 49.0796C53.7955 49.106 53.7767 49.1287 53.7541 49.1513L53.7504 49.1551C53.66 49.2514 53.5547 49.3137 53.4342 49.3439C53.3137 49.3741 53.1989 49.3647 53.0897 49.3156C52.9805 49.2665 52.9034 49.1721 52.8544 49.0343C52.8205 48.9096 52.8168 48.785 52.845 48.6623C52.8695 48.5527 52.909 48.4508 52.9636 48.3545C53.0295 48.2261 53.1161 48.1373 53.2234 48.0825C53.3306 48.0297 53.4511 47.9995 53.5847 47.9938C53.7843 47.9844 53.9104 48.0788 53.9631 48.2771C53.9951 48.3923 54.0026 48.5074 53.9876 48.6264C53.9838 48.6528 53.9781 48.6811 53.9725 48.7095C53.9668 48.7283 53.9612 48.7472 53.9574 48.7661C53.9518 48.8303 53.98 48.8586 54.0402 48.8529C54.2078 48.8247 54.3753 48.683 54.5409 48.43L54.5428 48.4338ZM53.3626 49.1759C53.4662 49.1287 53.5377 49.0475 53.5772 48.9323C53.4059 48.8228 53.293 48.666 53.2346 48.4621C53.182 48.5584 53.1481 48.6698 53.1368 48.7982C53.1255 48.9266 53.1368 49.0323 53.1744 49.1154C53.2121 49.1985 53.2742 49.2193 53.3626 49.1777V49.1759ZM53.6544 48.7057C53.6826 48.6641 53.6977 48.6151 53.7033 48.5546C53.709 48.4961 53.7052 48.4357 53.6939 48.3771C53.6826 48.3186 53.6675 48.2714 53.6487 48.2393C53.6299 48.2053 53.6092 48.1959 53.5866 48.2091C53.5471 48.2431 53.5264 48.294 53.5208 48.3601C53.517 48.4262 53.5264 48.4904 53.5508 48.5565C53.5753 48.6226 53.6092 48.6717 53.6544 48.7076V48.7057Z" fill="black"/>
<path d="M57.1517 48.8213V48.8175C57.1648 48.8043 57.195 48.776 57.2457 48.7307C57.2947 48.6873 57.3477 48.6438 57.4001 48.6042C57.4548 48.5645 57.4946 48.5438 57.5169 48.5419C57.5396 48.54 57.5357 48.5759 57.4998 48.6495C57.4946 48.659 57.485 48.6722 57.4736 48.6854C57.4622 48.6986 57.4514 48.7118 57.4434 48.725C57.44 48.7288 57.436 48.7307 57.4326 48.7363C57.2104 48.9762 57.035 49.1423 56.9091 49.233C56.7832 49.3255 56.6585 49.3689 56.5366 49.3633C56.4084 49.3501 56.3237 49.301 56.2785 49.2141C56.2333 49.1272 56.2126 49.0234 56.2126 48.8987C56.2126 48.7741 56.2239 48.6495 56.2427 48.5211C56.2634 48.3889 56.271 48.2757 56.2672 48.1831C56.2634 48.0906 56.2314 48.0339 56.1712 48.0189C56.1147 48.0151 56.0564 48.0623 55.9981 48.1586C55.9378 48.2567 55.8814 48.3701 55.8287 48.5003C55.7759 48.6287 55.7308 48.7439 55.695 48.8421C55.6762 48.895 55.663 48.9346 55.6536 48.9573C55.6273 49.0083 55.5915 49.0423 55.5426 49.0574C55.4955 49.0725 55.4447 49.0706 55.3901 49.0479C55.3581 49.0271 55.3393 49.0007 55.3317 48.9649C55.3223 48.8874 55.3205 48.8081 55.3223 48.725C55.3261 48.6722 55.3261 48.6193 55.3223 48.5683V48.4437C55.3223 48.4191 55.3205 48.3965 55.3148 48.3757C55.3092 48.355 55.2997 48.3455 55.2828 48.3455C55.2583 48.3417 55.2282 48.3719 55.1925 48.4342C55.1567 48.4966 55.1209 48.5702 55.0852 48.6571C55.0494 48.7439 55.0156 48.8213 54.9873 48.8912C54.9609 48.9516 54.944 48.9931 54.9346 49.0158C54.9309 49.0253 54.9252 49.0366 54.9195 49.0461C54.8913 49.1027 54.8612 49.1593 54.8329 49.2179C54.8085 49.2651 54.7671 49.2934 54.7087 49.3029C54.5921 49.3236 54.528 49.2745 54.5186 49.1593C54.5092 48.8629 54.5017 48.5664 54.4941 48.2681C54.4941 48.1907 54.5412 48.1642 54.6372 48.1869C54.7332 48.2095 54.7859 48.2586 54.7953 48.3361C54.8047 48.4607 54.8179 48.5249 54.8386 48.5249C54.8574 48.5249 54.8988 48.472 54.9591 48.3587C54.9911 48.3058 55.025 48.2511 55.0588 48.1963C55.1003 48.1246 55.1548 48.0604 55.2264 48.0037C55.2979 47.9565 55.3694 47.9414 55.4352 47.9622C55.503 47.9811 55.5557 48.0321 55.5934 48.1151C55.6085 48.1491 55.6254 48.168 55.6404 48.1718C55.6555 48.1755 55.6724 48.168 55.6875 48.1491C55.7026 48.1321 55.7195 48.1114 55.7346 48.0868C55.7477 48.0604 55.7628 48.0377 55.7778 48.0189C55.8682 47.9206 55.9736 47.8508 56.0978 47.813C56.222 47.7753 56.3331 47.7753 56.4347 47.8168C56.5366 47.8583 56.593 47.949 56.6095 48.0906C56.6152 48.2586 56.6044 48.4305 56.5759 48.6061C56.5645 48.691 56.5554 48.7703 56.5474 48.8459C56.5423 49.0102 56.5719 49.0989 56.6363 49.1159C56.7018 49.131 56.7809 49.1065 56.8749 49.0385C56.9695 48.9705 57.0595 48.8969 57.1483 48.8175L57.1517 48.8213Z" fill="black"/>
<path d="M68.2379 42.4428C68.3621 42.5222 68.4037 42.6355 68.3644 42.779C68.3376 42.8488 68.304 42.913 68.2624 42.9754C68.1929 43.0735 68.1098 43.1623 68.0141 43.2397C67.5681 43.6192 67.056 43.8552 66.4761 43.9421C66.348 43.9629 66.2221 43.9855 66.0939 44.0101C66.0358 44.0233 65.9812 44.0195 65.9322 44.0007C65.9003 43.9874 65.8855 43.9667 65.8855 43.9364C65.8872 43.9232 65.8929 43.91 65.9003 43.8987C65.906 43.8855 65.9151 43.8779 65.9231 43.876C65.9641 43.8534 66.0074 43.8364 66.0529 43.8288C66.1093 43.8194 66.1657 43.808 66.2238 43.7986C66.2654 43.7948 66.3087 43.7892 66.352 43.7816C66.6379 43.7287 66.9016 43.6324 67.1409 43.4927C67.3795 43.353 67.6 43.1792 67.805 42.9716C67.8654 42.913 67.9121 42.8451 67.9446 42.7639C67.9782 42.6676 67.952 42.5996 67.8637 42.5599C67.7486 42.5184 67.6302 42.4958 67.5094 42.4919H66.8732C66.4949 42.4919 66.1167 42.5127 65.7419 42.5524C65.366 42.592 64.9912 42.6392 64.6164 42.6921C64.02 42.7695 63.4271 42.862 62.8341 42.9716C62.8381 43.0508 62.8381 43.132 62.8381 43.2114V51.0192C62.8381 51.2684 62.8341 51.5158 62.825 51.767C62.825 51.901 62.7606 51.9558 62.633 51.935C62.5687 51.9255 62.5328 51.8897 62.5219 51.8311C62.5219 51.8047 62.5219 51.7783 62.518 51.7537C62.5088 51.6329 62.5032 51.5102 62.5032 51.3855C62.4992 50.5811 62.4992 49.7748 62.4992 48.9667V43.0358C62.4992 43.0358 62.4861 43.0414 62.4804 43.0414C62.4616 43.0452 62.4445 43.0471 62.4274 43.0508C61.9552 43.1434 61.4887 43.2548 61.0273 43.3813C60.5659 43.5078 60.1108 43.6589 59.6625 43.8326C59.5025 43.893 59.3464 43.9591 59.1903 44.0327C59.1431 44.0554 59.0963 44.0762 59.0531 44.097C58.9665 44.1291 58.8964 44.1857 58.8457 44.2688C58.8121 44.3198 58.7591 44.3462 58.6879 44.3481C58.6179 44.3481 58.5558 44.3292 58.5011 44.2895C58.4601 44.2499 58.4544 44.2083 58.4863 44.163C58.5199 44.1158 58.5632 44.0743 58.6122 44.0403C58.6612 44.0063 58.7141 43.9761 58.7688 43.9459C59.0417 43.8062 59.3202 43.6853 59.6044 43.5815C60.3273 43.3171 61.0609 43.1038 61.8105 42.9395C62.0401 42.8923 62.2696 42.8451 62.4992 42.8016C62.5009 42.7544 62.5049 42.7072 62.5088 42.6619C62.518 42.6015 62.5482 42.558 62.5971 42.5354C62.6461 42.5127 62.7008 42.5146 62.7629 42.543C62.8079 42.5675 62.8284 42.6052 62.8267 42.6581C62.8267 42.6864 62.8267 42.7148 62.8307 42.7431C63.3798 42.6468 63.9317 42.5599 64.4865 42.4844C65.063 42.4013 65.6405 42.3371 66.2204 42.2918C66.6721 42.2597 67.1238 42.2559 67.5772 42.2786C67.7241 42.288 67.8688 42.3107 68.0124 42.3466C68.095 42.3654 68.1702 42.3994 68.2396 42.4466L68.2379 42.4428Z" fill="black"/>
<path d="M64.8626 48.7421C64.8176 48.8347 64.7424 48.9385 64.633 49.0518C64.5242 49.1651 64.4035 49.2368 64.2662 49.2671C64.1289 49.2973 63.999 49.25 63.8749 49.1254C63.8276 49.0707 63.7917 49.0065 63.7689 48.9347C63.7467 48.8629 63.7393 48.7912 63.745 48.7213V48.6496C63.745 48.576 63.7484 48.4891 63.7541 48.3928C63.7598 48.2946 63.7746 48.2077 63.7974 48.1284C63.8202 48.0491 63.8555 48.0038 63.9028 47.9868C64.0401 47.9528 64.1152 48 64.1266 48.1303C64.1266 48.1719 64.1266 48.2153 64.1232 48.2568C64.1192 48.2795 64.1192 48.2984 64.1192 48.3173C64.1152 48.3777 64.1135 48.44 64.1101 48.5004C64.1101 48.5476 64.1078 48.5967 64.1044 48.6439C64.1004 48.8535 64.1477 48.98 64.2457 49.0197C64.3414 49.0593 64.4525 49.0178 64.5766 48.8932C64.7008 48.7685 64.7817 48.6647 64.8216 48.5816C64.8592 48.4985 64.8871 48.4816 64.9041 48.5288C64.9212 48.576 64.9081 48.6477 64.8626 48.7403V48.7421ZM64.0987 47.5393C64.0799 47.5544 64.0571 47.5657 64.0309 47.5695C64.0047 47.5733 63.9803 47.5714 63.9592 47.5639C63.9444 47.5507 63.933 47.5336 63.929 47.5129C63.9256 47.4921 63.9233 47.4676 63.9233 47.4373C63.9233 47.4317 63.9233 47.426 63.9273 47.4204C63.9313 47.3939 63.937 47.3675 63.9461 47.3411C63.9746 47.2712 64.0344 47.2391 64.1266 47.2448C64.1591 47.2485 64.183 47.2617 64.2024 47.2844C64.2212 47.3071 64.2246 47.3316 64.2132 47.3599C64.191 47.4317 64.1534 47.4902 64.0987 47.5393Z" fill="black"/>
<path d="M66.3707 48.6117C66.3952 48.5513 66.4214 48.523 66.4516 48.523C66.4818 48.523 66.4892 48.5532 66.4801 48.6117C66.4328 48.7591 66.3747 48.9025 66.3086 49.0366C66.2426 49.1725 66.1526 49.2934 66.0375 49.4011C65.9509 49.4879 65.8478 49.5445 65.7271 49.5691C65.5636 49.5917 65.428 49.5729 65.3227 49.5105C65.2173 49.4483 65.1324 49.3576 65.0703 49.2424C65.0082 49.1253 64.961 48.9988 64.9308 48.8591C64.9006 48.7213 64.8801 48.5853 64.8727 48.4551C64.8499 48.2077 64.8328 47.8848 64.822 47.4807C64.8106 47.0785 64.814 46.6537 64.8328 46.2043C64.8516 45.7549 64.8949 45.3395 64.9649 44.9561C65.0327 44.5728 65.1341 44.2764 65.268 44.0649C65.3449 43.9611 65.4337 43.9101 65.5351 43.9082C65.6365 43.9082 65.7271 43.9535 65.808 44.0498C65.8609 44.1235 65.9019 44.2027 65.9304 44.2858C65.9583 44.3689 65.9754 44.452 65.9851 44.5388C66.013 44.8334 66.0096 45.1449 65.9737 45.4716C65.9378 45.7983 65.8797 46.1495 65.8023 46.5196C65.7231 46.8916 65.6314 47.2183 65.522 47.5015C65.4126 47.7847 65.3227 48.0094 65.2509 48.1737C65.2116 48.2398 65.1962 48.3417 65.2076 48.4758C65.2207 48.6231 65.2492 48.776 65.2902 48.9347C65.3318 49.0933 65.3921 49.2197 65.469 49.3142C65.5408 49.3916 65.6217 49.4162 65.7123 49.3859C65.8023 49.3576 65.8911 49.2953 65.9794 49.2028C66.0677 49.1103 66.1469 49.0083 66.2147 48.8988C66.2824 48.7892 66.3348 48.6929 66.3707 48.608V48.6117ZM65.2133 46.3836C65.2036 46.48 65.1962 46.6235 65.1888 46.8179C65.1814 47.0124 65.174 47.2088 65.166 47.4089C65.1603 47.6317 65.1529 47.8074 65.1472 47.932C65.219 47.7715 65.2999 47.5392 65.3939 47.2352C65.4878 46.9312 65.5744 46.5706 65.6519 46.1571C65.7288 45.7435 65.78 45.296 65.8023 44.8127C65.7892 44.5313 65.7556 44.3406 65.7009 44.2405C65.6462 44.1404 65.5875 44.131 65.5237 44.2141C65.4599 44.2972 65.4092 44.4709 65.3711 44.7371C65.313 45.1771 65.268 45.617 65.2378 46.0589C65.2281 46.1684 65.2207 46.276 65.2133 46.3836Z" fill="black"/>
<path d="M68.439 48.5736C68.4709 48.5547 68.5011 48.5396 68.533 48.5301C68.5632 48.5207 68.5837 48.5207 68.5934 48.532C68.6025 48.5434 68.5894 48.5698 68.5558 48.6095C68.4465 48.7341 68.3166 48.8493 68.1662 48.9531C68.0153 49.057 67.8592 49.1439 67.7008 49.2156C67.5767 49.2723 67.4451 49.3176 67.3078 49.3496C67.1705 49.3836 67.0327 49.3912 66.8971 49.3723C66.7616 49.3534 66.6397 49.293 66.5263 49.1911C66.3571 49.0343 66.2877 48.8417 66.3156 48.617C66.3401 48.4376 66.4101 48.2847 66.5246 48.1582C66.6397 48.0336 66.7843 47.9467 66.9592 47.9033C67.1062 47.8712 67.2514 47.8674 67.3978 47.8919C67.4639 47.9014 67.526 47.924 67.5807 47.9599C67.6313 47.9996 67.6598 48.0449 67.6632 48.0977C67.6689 48.1506 67.6484 48.1997 67.6034 48.2488C67.5112 48.3319 67.4035 48.381 67.281 48.3961C67.146 48.4188 67.0082 48.4339 66.8709 48.4395C66.8049 48.4395 66.7581 48.4528 66.7319 48.4811C66.7052 48.5094 66.6887 48.5566 66.6847 48.6226C66.6619 48.804 66.7205 48.9531 66.8578 49.0664C66.9427 49.1344 67.0458 49.1646 67.1683 49.1533C67.2907 49.1439 67.4206 49.1098 67.5579 49.0532C67.6951 48.9965 67.829 48.9324 67.9606 48.8568C68.0927 48.7813 68.2112 48.7115 68.3166 48.6453C68.3616 48.617 68.4015 48.5925 68.4351 48.5736H68.439ZM66.9296 48.1865C66.9296 48.1865 66.9273 48.1902 66.9239 48.1902C66.9182 48.1959 66.9108 48.2035 66.9011 48.211C66.8914 48.2186 66.8823 48.2261 66.8749 48.2356C66.8669 48.2432 66.8635 48.2488 66.8635 48.2526C66.8669 48.262 66.8914 48.2658 66.9427 48.2601C66.9917 48.2545 67.0458 48.2469 67.1045 48.2337C67.1626 48.2205 67.2138 48.2054 67.2531 48.1827C67.2924 48.162 67.3038 48.1374 67.289 48.1072C67.281 48.0977 67.2719 48.0902 67.2622 48.0845C67.2514 48.0789 67.24 48.0732 67.2269 48.0713C67.1683 48.0713 67.1159 48.0827 67.0686 48.1053C67.0213 48.128 66.9746 48.1544 66.9313 48.1865H66.9296Z" fill="black"/>
<path d="M72.5007 48.2753C72.5474 48.2508 72.5964 48.2319 72.6454 48.2206C72.6943 48.2092 72.7337 48.2055 72.7621 48.2111C72.7906 48.2168 72.7997 48.2281 72.7883 48.247C72.7769 48.2659 72.7359 48.2942 72.6624 48.3301C72.54 48.3848 72.4084 48.4623 72.2689 48.5642C72.1299 48.6662 72.0074 48.7814 71.898 48.9098C71.7892 49.0382 71.7215 49.1741 71.693 49.3176C71.5819 49.937 71.4184 50.545 71.2054 51.1379C71.1097 51.4173 70.989 51.6874 70.842 51.9479C70.7782 52.0631 70.703 52.167 70.6147 52.2595C70.5617 52.3161 70.498 52.3501 70.4228 52.3634C70.298 52.3784 70.204 52.369 70.1402 52.3294C70.0764 52.2897 70.0309 52.2066 70.0007 52.0763C69.9745 51.9196 69.9785 51.7629 70.0104 51.6062C70.0742 51.2587 70.1852 50.9283 70.3453 50.6111C70.4695 50.3562 70.6067 50.1088 70.7594 49.8728C70.9098 49.6367 71.0812 49.412 71.2732 49.2024C71.3205 49.1496 71.3541 49.0929 71.3751 49.0325C71.3956 48.972 71.407 48.9116 71.4127 48.8475C71.4184 48.7682 71.4258 48.687 71.4372 48.6076C71.4782 48.2753 71.5084 47.9392 71.5272 47.6012C71.5671 46.8894 71.554 46.1775 71.4839 45.4656C71.4463 45.088 71.3694 44.7179 71.2544 44.3554C71.2037 44.1854 71.1262 44.0287 71.0231 43.8852C70.9946 43.8474 70.9627 43.8134 70.9326 43.7813C70.85 43.6944 70.7708 43.6472 70.6956 43.6378C70.6204 43.6284 70.5355 43.6624 70.4433 43.7322C70.1328 43.9626 69.9426 44.2685 69.8765 44.6518C69.8543 44.7934 69.7785 44.8425 69.6509 44.7991C69.5906 44.7764 69.5587 44.7368 69.5547 44.6744C69.5513 44.6216 69.557 44.5668 69.5701 44.512C69.6584 44.1798 69.8275 43.8984 70.0799 43.6699C70.1909 43.5642 70.3151 43.4943 70.4507 43.4622C70.5862 43.4301 70.7292 43.4282 70.8802 43.4528C70.9645 43.4679 71.0419 43.5 71.1074 43.5472C71.1735 43.5944 71.2356 43.6491 71.2937 43.7134C71.435 43.8795 71.5386 44.0646 71.6047 44.2685C71.6782 44.4762 71.7346 44.6858 71.7756 44.8991C71.8154 45.1125 71.8456 45.3259 71.8644 45.5431C71.8866 45.8546 71.9037 46.1454 71.9168 46.4211C71.9208 46.5249 71.9242 46.625 71.9322 46.7213C71.9225 47.3218 71.8889 47.8731 71.8303 48.3735C71.8246 48.4377 71.8211 48.5019 71.8172 48.5642C71.8172 48.5774 71.8172 48.5907 71.8211 48.6039C71.8246 48.6171 71.8342 48.6246 71.8491 48.6284C71.8587 48.6322 71.8701 48.6322 71.8792 48.6284C71.8889 48.6246 71.8963 48.6227 71.902 48.619C72.0353 48.5264 72.1635 48.4509 72.2842 48.3924C72.352 48.3603 72.4249 48.3225 72.5064 48.2772L72.5007 48.2753ZM71.1997 49.9577C71.2071 49.9294 71.2128 49.8973 71.2151 49.8652C71.2151 49.852 71.2151 49.8369 71.2185 49.8218C71.034 50.0559 70.8722 50.2995 70.7349 50.5525C70.5976 50.8055 70.4883 51.0756 70.4057 51.3588C70.3772 51.4627 70.3527 51.5646 70.3362 51.6684C70.3191 51.7723 70.3151 51.8762 70.3248 51.98C70.3248 51.9951 70.3282 52.0102 70.3339 52.0235C70.3396 52.0367 70.351 52.0442 70.3658 52.048C70.3943 52.0536 70.4171 52.0442 70.4336 52.0197C70.539 51.8686 70.6278 51.7081 70.6973 51.5363C70.8084 51.2814 70.9041 51.0208 70.9833 50.7583C71.0624 50.4959 71.1342 50.2278 71.198 49.9558L71.1997 49.9577Z" fill="black"/>
<path d="M74.5991 48.7878C74.7102 48.6104 74.7763 48.4989 74.7985 48.4498C74.8195 48.4026 74.8361 48.4045 74.8475 48.4555C74.8588 48.5065 74.823 48.6254 74.7404 48.8086C74.6555 48.9918 74.5518 49.1334 74.4277 49.2334C74.3035 49.3336 74.1867 49.3694 74.0796 49.343C73.9725 49.3165 73.8951 49.241 73.8484 49.1183C73.8011 48.9937 73.788 48.8369 73.8068 48.6481C73.8068 48.6444 73.8068 48.6368 73.8102 48.6236C73.8142 48.5914 73.8182 48.5442 73.8273 48.482C73.8347 48.4196 73.8404 48.3554 73.8444 48.2874C73.8484 48.2195 73.8444 48.1647 73.8387 48.1213C73.8313 48.0778 73.8102 48.0628 73.7783 48.076C73.7014 48.1175 73.6262 48.2006 73.5544 48.3233C73.481 48.4461 73.4155 48.5745 73.3551 48.7085C73.2947 48.8426 73.2531 48.9521 73.2286 49.0333C73.2195 49.0597 73.2098 49.0862 73.2007 49.1164C73.1876 49.1541 73.1722 49.1919 73.1574 49.2297C73.1159 49.3392 73.0424 49.3808 72.937 49.3562C72.8789 49.343 72.8447 49.3071 72.8356 49.2486C72.8316 49.2033 72.8316 49.1617 72.8316 49.1202C72.8316 49.0937 72.8316 49.0692 72.8282 49.0484C72.8225 48.7255 72.8145 48.4008 72.8037 48.0741C72.8071 48.0363 72.8225 48.0099 72.8544 47.9966C72.8846 47.9816 72.9199 47.974 72.9632 47.974C72.9957 47.974 73.0259 47.9834 73.0538 48.0005C73.0822 48.0174 73.0988 48.0552 73.1067 48.11C73.1102 48.1289 73.1102 48.1477 73.1102 48.1666C73.1141 48.1761 73.1141 48.1855 73.1141 48.1949C73.1198 48.2402 73.1233 48.278 73.1233 48.3101C73.1233 48.3573 73.1272 48.3913 73.1329 48.4083C73.1386 48.4253 73.1534 48.4253 73.1745 48.4064C73.195 48.3876 73.2286 48.3422 73.2776 48.2724C73.3608 48.144 73.4622 48.0363 73.5846 47.9476C73.6957 47.8682 73.8182 47.8343 73.9515 47.8475C74.0665 47.8588 74.1434 47.9193 74.181 48.0288C74.1964 48.0835 74.2055 48.1402 74.2055 48.1949C74.2055 48.2497 74.2021 48.3064 74.1947 48.363C74.1907 48.4215 74.1867 48.4801 74.181 48.5424C74.1776 48.5613 74.1736 48.5801 74.1702 48.599C74.1514 48.8067 74.1565 48.9465 74.189 49.0163C74.2209 49.0862 74.2699 49.1107 74.3337 49.0862C74.3975 49.0616 74.4863 48.9616 74.5991 48.7841V48.7878Z" fill="black"/>
<path d="M76.0338 48.4357C76.0338 48.4697 75.9643 48.5283 75.8231 48.6133C75.6818 48.6982 75.5782 48.7624 75.5127 48.8058C75.4466 48.8493 75.413 48.8757 75.413 48.8851C75.4261 48.9135 75.4392 48.9626 75.454 49.0305C75.4694 49.0985 75.4751 49.1722 75.4711 49.2534C75.4671 49.3326 75.4409 49.4044 75.3936 49.4667C75.3469 49.529 75.266 49.5668 75.1549 49.58C75.0439 49.5894 74.9442 49.5725 74.8553 49.529C74.7687 49.4856 74.7124 49.4233 74.6901 49.3421C74.6674 49.2609 74.6958 49.1665 74.771 49.057C74.8217 48.9965 74.8821 48.9437 74.9533 48.8983C74.9778 48.8833 75.0023 48.8643 75.0285 48.8455C74.9442 48.753 74.8633 48.6567 74.7858 48.5603C74.7089 48.4641 74.6599 48.3753 74.6389 48.2998C74.6167 48.211 74.6315 48.1279 74.6844 48.0486C74.7368 47.9693 74.8291 47.924 74.959 47.9108C75.0234 47.9051 75.0832 47.9089 75.1378 47.9202C75.1925 47.9316 75.2449 47.9599 75.2922 48.0014C75.3019 48.0109 75.3093 48.0222 75.315 48.0354C75.3207 48.0486 75.3167 48.0638 75.3093 48.0826C75.2939 48.111 75.2694 48.1261 75.2375 48.1261C75.2153 48.1261 75.1925 48.1223 75.1697 48.1166C75.1475 48.1072 75.1265 48.0978 75.1077 48.0883C75.0946 48.0807 75.0832 48.0751 75.0701 48.0694C75.0285 48.0543 74.9966 48.0562 74.9744 48.0751C74.9516 48.0958 74.9402 48.1261 74.9402 48.1695C74.9442 48.2431 74.9744 48.3225 75.0308 48.4074C75.0872 48.4924 75.1453 48.5698 75.2016 48.6397C75.2244 48.6642 75.2449 48.6887 75.2603 48.7114C75.2751 48.7265 75.3184 48.7246 75.3862 48.7039C75.454 48.6831 75.5782 48.6246 75.761 48.5283C75.9433 48.4319 76.0338 48.4018 76.0338 48.4338V48.4357ZM75.0627 49.4157C75.1042 49.4119 75.1322 49.3893 75.1453 49.3459C75.1584 49.3025 75.1623 49.2552 75.1606 49.2023C75.1566 49.1495 75.1532 49.1117 75.1509 49.0853C75.1453 49.0702 75.1361 49.0589 75.1208 49.0551C75.106 49.0513 75.0928 49.0513 75.0797 49.057C75.0325 49.0947 74.9966 49.1419 74.9744 49.2005C74.9516 49.259 74.9533 49.31 74.9801 49.3534C74.9892 49.3685 75.0006 49.3837 75.0137 49.395C75.0268 49.4063 75.0456 49.4138 75.0644 49.4176L75.0627 49.4157Z" fill="black"/>
<path d="M77.4773 48.5777C77.5565 48.5002 77.5924 48.4814 77.581 48.5192C77.5696 48.5569 77.5263 48.6268 77.4494 48.7288C77.3719 48.8307 77.2762 48.9384 77.1634 49.0573C77.0501 49.1762 76.9282 49.2764 76.8 49.3632C76.6719 49.4501 76.5517 49.4973 76.4366 49.5029C76.2954 49.5029 76.1843 49.4614 76.1 49.3783C76.0151 49.2952 75.9547 49.1838 75.9189 49.0478C75.8835 48.91 75.8682 48.7628 75.8739 48.6022C75.8813 48.4229 75.887 48.2454 75.8927 48.066C75.8966 47.9753 75.8983 47.8885 75.9023 47.8016C75.9097 47.6581 75.9154 47.5146 75.9171 47.3711C75.9211 47.3258 75.9132 47.288 75.8944 47.2578C75.8778 47.2276 75.8459 47.2106 75.8004 47.2068C75.7497 47.203 75.6859 47.203 75.6084 47.203H75.437C75.3715 47.1955 75.3265 47.1785 75.3037 47.1502C75.2809 47.1218 75.298 47.0936 75.3561 47.0633C75.3977 47.0482 75.4449 47.0388 75.503 47.0369C75.5594 47.0369 75.6158 47.0369 75.6705 47.0388C75.7047 47.0425 75.7366 47.0425 75.7611 47.0425C75.8459 47.0425 75.8983 47.0293 75.9171 47.0029C75.9359 46.9765 75.9473 46.9236 75.9513 46.8424C75.9564 46.7574 75.9604 46.6725 75.9644 46.5875C75.9678 46.5422 75.9701 46.4969 75.9758 46.4534C75.9758 46.3873 75.9923 46.3269 76.0282 46.2722C76.0658 46.2212 76.1131 46.2023 76.1712 46.2136C76.2219 46.2268 76.2504 46.2589 76.2561 46.3099C76.2595 46.3949 76.2618 46.4798 76.2618 46.5648C76.2652 46.612 76.2652 46.6612 76.2618 46.7084C76.2618 46.7593 76.2618 46.8122 76.2652 46.8669C76.2618 46.9425 76.2709 46.9897 76.2919 47.0105C76.3125 47.0293 76.3614 47.0406 76.4423 47.0406H76.8279C76.8866 47.0406 77.0581 47.0369 77.344 47.0293C77.63 47.0218 77.7843 47.0444 77.8071 47.0992C77.8293 47.154 77.6487 47.1861 77.2631 47.1936C77.0296 47.2068 76.849 47.2125 76.7226 47.2125C76.6383 47.2087 76.5608 47.2087 76.493 47.2087C76.3785 47.2087 76.3085 47.2295 76.2823 47.2692C76.2561 47.3088 76.243 47.39 76.2464 47.5089C76.243 47.6128 76.239 47.7374 76.2316 47.8828C76.2128 48.183 76.2031 48.4889 76.2031 48.8024C76.2111 49.0177 76.2487 49.1574 76.3182 49.2197C76.3876 49.2839 76.4782 49.2952 76.5893 49.2556C76.7004 49.2159 76.8205 49.1441 76.9504 49.0422C77.0803 48.9402 77.2084 48.8307 77.3366 48.7117C77.3645 48.6759 77.3964 48.6419 77.4363 48.6098C77.4494 48.5985 77.4608 48.5871 77.4739 48.5777H77.4773Z" fill="black"/>
<path d="M79.9058 48.5052C79.8665 48.628 79.7873 48.7677 79.6688 48.9244C79.5503 49.0811 79.4034 49.1831 79.2262 49.2284C79.0497 49.2737 78.897 49.2681 78.7688 49.2095C78.6413 49.1529 78.5695 48.9981 78.5564 48.7488C78.4094 49.0339 78.2704 49.2152 78.1383 49.2945C78.0067 49.3738 77.8672 49.404 77.7242 49.3852C77.5624 49.3587 77.4531 49.2964 77.395 49.1963C77.3386 49.0963 77.3181 48.9811 77.3369 48.8489C77.3557 48.7167 77.395 48.5921 77.4553 48.4712C77.502 48.3806 77.5681 48.2975 77.653 48.2201C77.7373 48.1427 77.8262 48.0823 77.9184 48.0388C78.0329 47.9803 78.148 47.9539 78.2625 47.9557C78.3792 47.9595 78.5017 47.9973 78.6333 48.0709C78.6373 48.0747 78.6373 48.0709 78.6373 48.0615C78.6373 48.0483 78.6413 48.0313 78.6464 48.0124C78.6521 47.9935 78.6635 47.9765 78.6806 47.9652C78.7239 47.9331 78.7746 47.918 78.8349 47.918C78.8953 47.918 78.9403 47.9482 78.9722 48.0067C78.9779 48.0841 78.9705 48.1824 78.9477 48.3013C78.901 48.5619 78.901 48.7507 78.9477 48.8659C78.995 48.9811 79.0799 49.0339 79.2 49.0264C79.3202 49.0188 79.4769 48.898 79.6705 48.6676C79.8642 48.4372 79.94 48.3806 79.9001 48.5033L79.9058 48.5052ZM77.7698 49.1189C77.8353 49.1661 77.9127 49.1604 77.9993 49.1C78.0859 49.0396 78.1685 48.9527 78.2477 48.8413C78.3268 48.7299 78.3946 48.6185 78.4493 48.5052C78.5034 48.3938 78.5336 48.3108 78.5393 48.256C78.3775 48.1691 78.238 48.154 78.1235 48.2107C78.0067 48.2673 77.9144 48.3617 77.8467 48.492C77.7789 48.6223 77.7373 48.7488 77.7242 48.8716C77.7111 48.9943 77.7282 49.0773 77.7715 49.1189H77.7698Z" fill="black"/>
<path d="M82.693 48.6528C82.7494 48.4697 82.7909 48.3809 82.8171 48.3885C82.8416 48.396 82.8416 48.4507 82.8171 48.5509C82.7927 48.6509 82.7608 48.7547 82.7215 48.8624C82.6833 48.97 82.6081 49.0663 82.497 49.1513C82.407 49.2211 82.3034 49.2665 82.1826 49.2854C82.0077 49.3042 81.8648 49.2854 81.7554 49.2268C81.6466 49.1702 81.56 49.089 81.4997 48.9851C81.4393 48.8813 81.396 48.768 81.3715 48.6471C81.3208 48.7812 81.257 48.9134 81.1778 49.0455C81.0987 49.1777 81.0007 49.2816 80.8839 49.3627C80.7654 49.4421 80.6242 49.4723 80.4607 49.4534C80.2875 49.4251 80.1537 49.3552 80.0597 49.2438C79.964 49.1343 79.8939 49.0059 79.8489 48.8586C79.8039 48.7113 79.7755 48.5697 79.7624 48.4319C79.7379 48.2053 79.7191 47.907 79.706 47.5387C79.6929 47.1705 79.6963 46.7797 79.7174 46.3699C79.7379 45.9602 79.7869 45.5769 79.862 45.2238C79.9372 44.8707 80.0523 44.5969 80.2066 44.4024C80.2892 44.3099 80.3889 44.2627 80.5057 44.2607C80.6225 44.2607 80.7244 44.3023 80.8127 44.3911C80.9272 44.527 80.9933 44.6762 81.0104 44.8423C81.044 45.1086 81.0326 45.3956 80.9728 45.7053C80.9124 46.0149 80.8298 46.3209 80.7204 46.6211C80.6111 46.9232 80.4983 47.197 80.3815 47.4443C80.2647 47.6917 80.1651 47.8899 80.0825 48.0373C80.0859 48.1411 80.0973 48.2695 80.1201 48.4225C80.1423 48.5735 80.1782 48.7227 80.2272 48.8681C80.2761 49.0134 80.3439 49.1286 80.4288 49.2174C80.5285 49.3005 80.6356 49.3005 80.7506 49.2193C80.8651 49.1381 80.9745 49.0172 81.0781 48.8549C81.1818 48.6943 81.2644 48.5338 81.3248 48.3771C81.302 48.1789 81.2849 47.9183 81.2735 47.5954C81.2627 47.2725 81.2684 46.9345 81.2889 46.5777C81.3094 46.2207 81.355 45.8903 81.4222 45.5844C81.49 45.2785 81.5919 45.0406 81.7252 44.8707C81.801 44.7914 81.8893 44.7498 81.9907 44.7479C82.0926 44.7479 82.1826 44.7838 82.2641 44.8613C82.3672 44.9783 82.4258 45.1086 82.4423 45.254C82.4805 45.5712 82.448 45.9111 82.3484 46.2774C82.2487 46.6437 82.1245 46.9874 81.9815 47.3084C81.8363 47.6294 81.7161 47.8767 81.6164 48.0486C81.6198 48.1411 81.6312 48.2544 81.65 48.3903C81.6688 48.5263 81.7013 48.6547 81.7463 48.7793C81.7896 48.9039 81.85 49.0059 81.9269 49.0833C82.0869 49.189 82.2396 49.189 82.3882 49.0833C82.5369 48.9775 82.6383 48.8341 82.697 48.6509L82.693 48.6528ZM80.1406 46.4379C80.1315 46.5229 80.1235 46.6494 80.1161 46.8174C80.1087 46.9855 80.1013 47.1573 80.0939 47.3367C80.0842 47.5274 80.0768 47.6803 80.0694 47.7918C80.148 47.6502 80.2425 47.4481 80.3479 47.1819C80.4533 46.9156 80.549 46.6022 80.6378 46.2415C80.7244 45.8809 80.7808 45.49 80.8053 45.067C80.7899 44.8216 80.7506 44.6554 80.6902 44.5667C80.6299 44.4779 80.5644 44.4722 80.4926 44.544C80.4214 44.6177 80.3644 44.7687 80.3211 45.001C80.2556 45.3843 80.2049 45.7695 80.169 46.1547C80.1594 46.2472 80.148 46.3416 80.1389 46.4379H80.1406ZM81.6654 46.6531C81.6597 46.7268 81.6523 46.8363 81.6443 46.9836C81.6369 47.1309 81.6295 47.2801 81.6221 47.433C81.6164 47.6029 81.6107 47.737 81.605 47.8352C81.6745 47.7106 81.7554 47.5312 81.85 47.2989C81.9439 47.0667 82.0305 46.7929 82.1074 46.4775C82.1866 46.1641 82.2356 45.8223 82.2584 45.456C82.2447 45.2389 82.2111 45.0916 82.1564 45.0142C82.1017 44.9367 82.0436 44.9311 81.9798 44.9953C81.9155 45.0595 81.8648 45.1935 81.8272 45.3975C81.7668 45.7298 81.7218 46.0659 81.6933 46.4039C81.6842 46.487 81.6745 46.5701 81.6654 46.655V46.6531Z" fill="black"/>
<path d="M85.1837 48.5052C85.1438 48.628 85.0652 48.7677 84.9462 48.9244C84.8277 49.0811 84.6807 49.1831 84.5041 49.2284C84.327 49.2737 84.1749 49.2681 84.0468 49.2095C83.9186 49.1529 83.8474 48.9981 83.8337 48.7488C83.6873 49.0339 83.5478 49.2152 83.4162 49.2945C83.2846 49.3738 83.1451 49.404 83.0021 49.3852C82.8403 49.3587 82.731 49.2964 82.6729 49.1963C82.6159 49.0963 82.5954 48.9811 82.6142 48.8489C82.633 48.7167 82.6729 48.5921 82.7327 48.4712C82.78 48.3806 82.846 48.2975 82.9303 48.2201C83.0152 48.1427 83.1035 48.0823 83.1958 48.0388C83.3108 47.9803 83.4253 47.9539 83.5404 47.9557C83.6572 47.9595 83.7796 47.9973 83.9112 48.0709C83.9152 48.0747 83.9152 48.0709 83.9152 48.0615C83.9152 48.0483 83.9186 48.0313 83.9243 48.0124C83.93 47.9935 83.9414 47.9765 83.9585 47.9652C84.0018 47.9331 84.0525 47.918 84.1123 47.918C84.1726 47.918 84.2182 47.9482 84.2501 48.0067C84.2558 48.0841 84.2478 48.1824 84.2256 48.3013C84.1783 48.5619 84.1783 48.7507 84.2256 48.8659C84.2723 48.9811 84.3572 49.0339 84.478 49.0264C84.5981 49.0188 84.7542 48.898 84.9484 48.6676C85.1421 48.4372 85.2173 48.3806 85.178 48.5033L85.1837 48.5052ZM83.0454 49.1189C83.1115 49.1661 83.1884 49.1604 83.2749 49.1C83.3615 49.0396 83.4441 48.9527 83.5233 48.8413C83.6025 48.7299 83.6702 48.6185 83.7249 48.5052C83.7796 48.3938 83.8092 48.3108 83.8149 48.256C83.6532 48.1691 83.5142 48.154 83.3991 48.2107C83.2824 48.2673 83.1901 48.3617 83.1223 48.492C83.0545 48.6223 83.0135 48.7488 83.0004 48.8716C82.9867 48.9943 83.0038 49.0773 83.0471 49.1189H83.0454Z" fill="black"/>
<path d="M86.6209 48.5777C86.7 48.5002 86.7359 48.4814 86.7245 48.5192C86.7131 48.5569 86.6698 48.6268 86.5929 48.7288C86.5155 48.8307 86.4198 48.9384 86.3064 49.0573C86.1936 49.1762 86.0712 49.2764 85.9436 49.3632C85.8154 49.4501 85.6947 49.4973 85.5802 49.5029C85.4389 49.5029 85.3278 49.4614 85.243 49.3783C85.1587 49.2952 85.0983 49.1838 85.0624 49.0478C85.0265 48.91 85.0117 48.7628 85.0174 48.6022C85.0248 48.4229 85.0305 48.2454 85.0362 48.066C85.0402 47.9753 85.0419 47.8885 85.0453 47.8016C85.0533 47.6581 85.059 47.5146 85.0607 47.3711C85.0647 47.3258 85.0567 47.288 85.0379 47.2578C85.0208 47.2276 84.9889 47.2106 84.9439 47.2068C84.8932 47.203 84.8289 47.203 84.752 47.203H84.5805C84.515 47.1955 84.4695 47.1785 84.4472 47.1502C84.4245 47.1218 84.4415 47.0936 84.4996 47.0633C84.5412 47.0482 84.5879 47.0388 84.6466 47.0369C84.703 47.0369 84.7594 47.0369 84.8141 47.0388C84.8477 47.0425 84.8801 47.0425 84.9046 47.0425C84.9889 47.0425 85.0419 47.0293 85.0607 47.0029C85.0795 46.9765 85.0909 46.9236 85.0943 46.8424C85.1 46.7574 85.104 46.6725 85.108 46.5875C85.1114 46.5422 85.1131 46.4969 85.1188 46.4534C85.1188 46.3873 85.1359 46.3269 85.1718 46.2722C85.2094 46.2212 85.2567 46.2023 85.3148 46.2136C85.3654 46.2268 85.3939 46.2589 85.3996 46.3099C85.403 46.3949 85.4053 46.4798 85.4053 46.5648C85.4087 46.612 85.4087 46.6612 85.4053 46.7084C85.4053 46.7593 85.4053 46.8122 85.4087 46.8669C85.4053 46.9425 85.4144 46.9897 85.4349 47.0105C85.456 47.0293 85.505 47.0406 85.5859 47.0406H85.9715C86.0302 47.0406 86.2011 47.0369 86.4876 47.0293C86.7735 47.0218 86.9279 47.0444 86.9507 47.0992C86.9729 47.154 86.7923 47.1861 86.4067 47.1936C86.1731 47.2068 85.9926 47.2125 85.8661 47.2125C85.7813 47.2087 85.7044 47.2087 85.6366 47.2087C85.5215 47.2087 85.452 47.2295 85.4258 47.2692C85.3996 47.3088 85.3865 47.39 85.3899 47.5089C85.3865 47.6128 85.3825 47.7374 85.3751 47.8828C85.3563 48.183 85.3466 48.4889 85.3466 48.8024C85.3541 49.0177 85.3916 49.1574 85.4617 49.2197C85.5312 49.2839 85.6218 49.2952 85.7328 49.2556C85.8439 49.2159 85.9641 49.1441 86.094 49.0422C86.2238 48.9402 86.352 48.8307 86.4796 48.7117C86.5081 48.6759 86.54 48.6419 86.5798 48.6098C86.5929 48.5985 86.6043 48.5871 86.6174 48.5777H86.6209Z" fill="black"/>
<path d="M87.7186 48.7421C87.673 48.8347 87.5979 48.9385 87.4891 49.0518C87.3797 49.1651 87.2589 49.2368 87.1217 49.2671C86.9844 49.2973 86.8545 49.25 86.7303 49.1254C86.6831 49.0707 86.6477 49.0065 86.625 48.9347C86.6022 48.8629 86.5948 48.7912 86.6005 48.7213V48.6496C86.6005 48.576 86.6045 48.4891 86.6096 48.3928C86.6153 48.2946 86.6307 48.2077 86.6529 48.1284C86.6757 48.0491 86.7115 48.0038 86.7583 47.9868C86.8961 47.9528 86.9713 48 86.9827 48.1303C86.9827 48.1719 86.9827 48.2153 86.9787 48.2568C86.9747 48.2795 86.9747 48.2984 86.9747 48.3173C86.9713 48.3777 86.9696 48.44 86.9656 48.5004C86.9656 48.5476 86.9639 48.5967 86.9599 48.6439C86.9559 48.8535 87.0032 48.98 87.1012 49.0197C87.1969 49.0593 87.3079 49.0178 87.4321 48.8932C87.5568 48.7685 87.6377 48.6647 87.677 48.5816C87.7146 48.4985 87.7431 48.4816 87.7596 48.5288C87.7767 48.576 87.7636 48.6477 87.7186 48.7403V48.7421ZM86.9542 47.5393C86.9354 47.5544 86.9126 47.5657 86.8864 47.5695C86.8602 47.5733 86.8357 47.5714 86.8152 47.5639C86.7998 47.5507 86.7884 47.5336 86.785 47.5129C86.781 47.4921 86.7793 47.4676 86.7793 47.4373C86.7793 47.4317 86.7793 47.426 86.7827 47.4204C86.7867 47.3939 86.7924 47.3675 86.8015 47.3411C86.83 47.2712 86.8904 47.2391 86.9827 47.2448C87.0146 47.2485 87.0391 47.2617 87.0579 47.2844C87.0767 47.3071 87.0807 47.3316 87.0693 47.3599C87.0465 47.4317 87.0089 47.4902 86.9542 47.5393Z" fill="black"/>
<path d="M89.5087 48.0323C89.552 47.9983 89.601 47.9794 89.6597 47.9794C89.6916 47.9794 89.7218 47.9888 89.7497 48.0058C89.7782 48.0228 89.7947 48.0605 89.8026 48.1153C89.8061 48.1342 89.8061 48.1531 89.8061 48.172C89.8101 48.1814 89.8101 48.1909 89.8101 48.2003C89.8158 48.2456 89.8192 48.2834 89.8192 48.3155C89.8192 48.3627 89.8232 48.3967 89.8289 48.4137C89.8346 48.4307 89.8494 48.4307 89.8704 48.4118C89.8909 48.3929 89.9245 48.3476 89.9735 48.2777C90.0567 48.1493 90.1581 48.0417 90.2806 47.9529C90.3916 47.8736 90.5141 47.8396 90.6474 47.8529C90.7624 47.8642 90.8376 47.9246 90.8775 48.0341C90.8923 48.0889 90.9014 48.1455 90.9014 48.2003C90.9014 48.2551 90.898 48.3117 90.8906 48.3684C90.8866 48.4269 90.8826 48.4854 90.8775 48.5477L90.8661 48.6044C90.8473 48.8121 90.853 48.9518 90.8849 49.0217C90.9168 49.0916 90.9658 49.1161 91.0296 49.0916C91.0939 49.067 91.1822 48.9669 91.295 48.7894C91.4061 48.6119 91.4722 48.5005 91.4944 48.4515C91.5172 48.4023 91.532 48.4061 91.5456 48.4571C91.5587 48.5081 91.5211 48.6271 91.438 48.8102C91.3554 48.9933 91.25 49.135 91.1258 49.2351C91.0017 49.3351 90.8849 49.371 90.7772 49.3445C90.6702 49.3181 90.5933 49.2426 90.546 49.1199C90.4987 48.9952 90.4856 48.8385 90.5044 48.6497C90.5044 48.6459 90.5044 48.6384 90.5084 48.6252C90.5118 48.5931 90.5158 48.5459 90.5255 48.4835C90.5329 48.4212 90.5386 48.357 90.542 48.2891C90.546 48.2229 90.542 48.1663 90.5363 48.1229C90.5306 48.0795 90.5084 48.0644 90.4765 48.0776C90.399 48.1191 90.3238 48.2022 90.2521 48.3249C90.1792 48.4477 90.1131 48.5761 90.0544 48.7101C89.9946 48.8442 89.953 48.9537 89.9285 49.0349C89.9194 49.0613 89.9097 49.0877 89.9006 49.118C89.8869 49.1557 89.8721 49.1935 89.8573 49.2313C89.8158 49.3408 89.7423 49.3823 89.6386 49.3578C89.5805 49.3445 89.5463 49.3087 89.5372 49.2501C89.5332 49.2048 89.5332 49.1633 89.5332 49.1217C89.5332 49.0953 89.5332 49.0708 89.5298 49.05C89.5241 48.797 89.5161 48.5421 89.511 48.2834C89.4825 48.3476 89.4432 48.4175 89.392 48.4949C89.1983 48.7365 89.0479 48.882 88.9425 48.9273C88.8349 48.9745 88.7557 49.0028 88.7033 49.016C88.6503 49.0292 88.6167 49.05 88.5996 49.0783C88.5848 49.1048 88.566 49.1274 88.5433 49.1501L88.5376 49.1539C88.4493 49.2501 88.3456 49.3125 88.2231 49.3427C88.1012 49.3729 87.9879 49.3635 87.8791 49.3144C87.7697 49.2653 87.6923 49.1708 87.6439 49.033C87.6097 48.9084 87.6057 48.7837 87.6342 48.661C87.6587 48.5515 87.698 48.4496 87.7526 48.3532C87.8187 48.2248 87.9053 48.1361 88.0124 48.0813C88.12 48.0285 88.2402 47.9983 88.3741 47.9926C88.5734 47.9832 88.6993 48.0776 88.7506 48.2759C88.7825 48.391 88.7899 48.5062 88.7745 48.6252C88.7711 48.6516 88.7671 48.6799 88.7614 48.7083C88.754 48.7271 88.7483 48.746 88.7466 48.7649C88.8201 48.7687 88.9141 48.7271 89.0291 48.6459C89.1436 48.5628 89.2507 48.4325 89.3544 48.2532C89.4187 48.138 89.4711 48.0625 89.5144 48.0266L89.5087 48.0323ZM88.1445 49.1765C88.2476 49.1293 88.3194 49.0481 88.3587 48.9329C88.1855 48.8234 88.0728 48.6667 88.0164 48.4628C87.9617 48.5591 87.9281 48.6705 87.9184 48.7989C87.907 48.9273 87.9201 49.033 87.9577 49.1161C87.9953 49.1992 88.058 49.2199 88.1462 49.1784L88.1445 49.1765ZM88.4362 48.7064C88.4641 48.6648 88.4829 48.6157 88.4886 48.5553C88.4943 48.4968 88.4926 48.4363 88.4829 48.3778C88.4715 48.3193 88.4567 48.272 88.4362 48.24C88.4151 48.206 88.3946 48.1965 88.3758 48.2097C88.3342 48.2437 88.3097 48.2947 88.3063 48.3608C88.3023 48.4269 88.312 48.4911 88.3382 48.5572C88.3627 48.6233 88.3963 48.6724 88.4362 48.7083V48.7064Z" fill="black"/>
</svg>
