<svg width="33" height="33" viewBox="0 0 33 33" fill="none" xmlns="http://www.w3.org/2000/svg">
<g clip-path="url(#clip0_87690_1902)">
<path d="M16.5 0.369141C7.66479 0.369141 0.5 7.53394 0.5 16.3691C0.5 25.2043 7.66479 32.3691 16.5 32.3691C25.3352 32.3691 32.5 25.2043 32.5 16.3691C32.5 7.53394 25.3352 0.369141 16.5 0.369141ZM11.8506 24.5566H7.95386V12.8333H11.8506V24.5566ZM9.90234 11.2324H9.87695C8.56934 11.2324 7.72363 10.3323 7.72363 9.20728C7.72363 8.05688 8.59521 7.18164 9.92822 7.18164C11.2612 7.18164 12.0815 8.05688 12.1069 9.20728C12.1069 10.3323 11.2612 11.2324 9.90234 11.2324ZM25.9014 24.5566H22.0051V18.2849C22.0051 16.7087 21.4409 15.6338 20.031 15.6338C18.9546 15.6338 18.3135 16.3589 18.0317 17.0588C17.9287 17.3093 17.9036 17.6594 17.9036 18.0098V24.5566H14.0071C14.0071 24.5566 14.0581 13.9331 14.0071 12.8333H17.9036V14.4932C18.4214 13.6943 19.3479 12.5581 21.4153 12.5581C23.979 12.5581 25.9014 14.2336 25.9014 17.8345V24.5566Z" fill="#FF0000"/>
</g>
<defs>
<clipPath id="clip0_87690_1902">
<rect width="32" height="32" fill="white" transform="translate(0.5 0.369141)"/>
</clipPath>
</defs>
</svg>
