<svg width="13" height="13" viewBox="0 0 13 13" fill="none" xmlns="http://www.w3.org/2000/svg">
<path d="M5.70582 1.30835C5.95528 0.540591 7.04146 0.540591 7.29092 1.30835L8.18223 4.05151C8.29379 4.39487 8.61375 4.62733 8.97477 4.62733H11.8591C12.6664 4.62733 13.002 5.66035 12.3489 6.13485L10.0155 7.83022C9.72338 8.04242 9.60116 8.41856 9.71272 8.76191L10.604 11.5051C10.8535 12.2728 9.97476 12.9113 9.32166 12.4368L6.98819 10.7414C6.69612 10.5292 6.30062 10.5292 6.00855 10.7414L3.67508 12.4368C3.02198 12.9113 2.14325 12.2728 2.39271 11.5051L3.28402 8.76191C3.39558 8.41856 3.27336 8.04242 2.98129 7.83022L0.647815 6.13485C-0.00527954 5.66035 0.330367 4.62733 1.13764 4.62733H4.02197C4.38299 4.62733 4.70295 4.39487 4.81452 4.05151L5.70582 1.30835Z" fill="#FCB547"/>
</svg>
